<svg version="1.1" xmlns="http://www.w3.org/2000/svg" style="display: block;" viewBox="0 0 2048 2048" width="1024"
     height="1024">
    <defs>
        <linearGradient id="Gradient1" gradientUnits="userSpaceOnUse" x1="1727.24" y1="1038.16" x2="1726.49"
                        y2="1015.92">
            <stop class="stop0" offset="0" stop-opacity="1" stop-color="rgb(56,56,57)"/>
            <stop class="stop1" offset="1" stop-opacity="1" stop-color="rgb(83,83,83)"/>
        </linearGradient>
    </defs>
    <path transform="translate(0,0)" fill="rgb(254,254,254)"
          d="M 0 0 L 88.7728 0 L 108.339 0 L 250.153 0 L 256.289 0 L 324.065 0 L 325.267 0 L 369.639 0 L 536.644 0 L 568.074 0 L 795.734 0 L 797.172 0 L 975.015 0 L 1005.14 0 L 2048 0 L 2048 1623.73 L 2048 1633.93 L 2048 1699.57 L 2048 2048 L 1447.47 2048 L 490.714 2048 L 0 2048 L 0 1560.16 L 0 1494 L 0 1484.71 L 0 1389.36 L 0 704.372 L 0 0 z"/>
    <path transform="translate(0,0)" fill="rgb(30,30,29)"
          d="M 1860.4 1007.93 L 1867.13 1007.1 C 1866.77 1020.75 1866.75 1034.8 1863.73 1048.16 C 1863.02 1034.76 1862.28 1021.22 1860.4 1007.93 z"/>
    <path transform="translate(0,0)" fill="rgb(30,30,29)"
          d="M 1728.64 1044.35 C 1730.2 1040.88 1730.85 1041.2 1734.26 1039.84 L 1742.44 1081.3 C 1736.24 1069.77 1733.43 1056.51 1728.64 1044.35 z"/>
    <path transform="translate(0,0)" fill="url(#Gradient1)"
          d="M 1722.37 1007.44 C 1724.36 1013.46 1726.8 1020.74 1731.34 1025.28 C 1733.04 1029.92 1733.51 1034.97 1734.26 1039.84 C 1730.85 1041.2 1730.2 1040.88 1728.64 1044.35 L 1721.4 1026.69 C 1721.56 1026.4 1721.75 1026.13 1721.88 1025.83 C 1724.34 1020.24 1721.94 1014.12 1720.37 1008.62 L 1722.37 1007.44 z"/>
    <path transform="translate(0,0)" fill="rgb(30,30,29)"
          d="M 1830.31 874.696 C 1831.33 872.148 1832.28 871.645 1834.38 869.955 C 1839.24 884.331 1841.64 900.932 1847.97 914.527 C 1847.49 918.576 1847.8 920.019 1845.04 923.134 C 1840.65 906.846 1835.37 890.785 1830.31 874.696 z"/>
    <path transform="translate(0,0)" fill="rgb(30,30,29)"
          d="M 1729.38 1495.31 L 1731.06 1491.79 C 1730.94 1480.3 1699.67 1423.85 1692.39 1412.2 L 1691.59 1410.94 C 1690.46 1409.12 1689.33 1407.53 1687.83 1405.98 C 1686.1 1404.2 1686.67 1405.29 1686.08 1403.02 C 1687.08 1402.82 1687.36 1402.7 1688.49 1402.89 C 1690.66 1403.24 1693.67 1404.79 1695.15 1406.39 L 1693.87 1407.57 C 1695.03 1415.28 1712.62 1442.68 1717.31 1451.68 C 1727.64 1471.52 1739.12 1493.67 1745.04 1515.23 C 1739.15 1509.08 1734.1 1502.41 1729.38 1495.31 z"/>
    <path transform="translate(0,0)" fill="rgb(30,30,29)"
          d="M 1306.26 589.133 L 1308.92 588.951 C 1332.1 610.028 1345.29 641.887 1364 666.34 C 1364.16 666.551 1364.31 666.767 1364.47 666.98 C 1364.86 653.793 1361.78 639.736 1360.25 626.589 L 1361.72 625.826 C 1365.86 644.156 1368.07 664.567 1369.17 683.295 C 1350.19 649.837 1330.3 619.158 1306.26 589.133 z"/>
    <path transform="translate(0,0)" fill="rgb(168,167,167)"
          d="M 464.477 810.011 C 488.922 816.044 509.849 842.626 523.223 862.365 C 548.89 849.668 573.126 842.247 601.862 845.62 C 597.289 847.52 592.573 848.73 587.806 850.028 C 564.611 856.756 543.934 868.319 522.684 879.406 C 517.163 873.992 512.61 866.831 508.036 860.606 C 497.09 845.707 486.666 831.414 472.912 818.93 C 469.765 816.073 466.83 813.592 464.477 810.011 z"/>
    <path transform="translate(0,0)" fill="rgb(65,65,65)"
          d="M 811.237 830.063 C 826.388 822.258 841.882 814.058 855.552 803.835 C 865.644 796.289 874.15 786.499 883.719 778.285 C 895.202 768.428 936.031 736.395 950.44 734.672 C 952.424 734.435 951.628 734.296 953.268 735.545 C 950.695 740.011 942.67 744.894 938.649 748.618 C 925.118 761.151 912.688 774.534 903.765 790.77 C 920.911 779.865 938.379 767.924 958.451 763.449 C 937.093 782.79 928.44 791.364 913.667 816.626 C 924.41 808.473 935.74 801.103 946.476 792.951 C 958.966 783.468 970.536 773.364 983.915 765.047 C 998.618 755.906 1049.96 732.632 1067.36 736.703 L 1067.52 737.756 C 1061.22 742.28 1053.21 744.656 1046.29 748.246 C 1034.91 754.151 1024.11 761.59 1013.79 769.168 C 1006.17 775.946 998.944 782.692 992.608 790.714 C 1013.17 785.679 1035.72 781.14 1056.91 780.782 L 1057.24 782.061 C 1053.79 784.695 1004.75 790.991 995.141 793.396 C 993.406 799.843 991.6 806.229 989.213 812.471 C 985.394 822.455 977.794 834.23 977.341 844.867 C 980.884 849.088 991.546 850.521 996.733 853.248 C 1005.63 857.379 1015.67 861.265 1023.39 867.395 C 1029.3 872.094 1034.25 878.906 1039.15 884.637 C 1058.48 907.253 1079.46 932.362 1089.4 960.82 C 1090.16 962.985 1090.76 964.986 1090.38 967.299 C 1085.4 958.642 1081.68 949.183 1076.74 940.446 C 1065.89 921.268 1052.59 904.561 1038.46 887.786 C 1040.29 893.437 1042.27 899.004 1043 904.923 C 1046.03 917.233 1043.21 930.722 1040.91 942.927 C 1037.91 953.472 1033.97 966.331 1027.21 975.126 C 1025 977.995 1020.54 980.493 1019.07 983.634 C 1017.96 986.011 1018.65 987.88 1019.35 990.214 C 1021.49 991.435 1022.03 991.696 1024.6 991.008 C 1031.32 989.211 1035.99 979.476 1038.57 973.743 C 1039.91 976.715 1039.97 978.013 1038.7 981.104 C 1035.02 990.101 1026.38 989.993 1022.29 995.334 C 1019.21 999.353 1024.62 1002.41 1019.33 1007.35 C 1017.26 992.889 1014.6 979.184 1007.86 966.099 C 993.759 938.7 972.23 929.783 944.187 920.625 C 901.507 913.47 858.269 929.099 820.906 949.017 C 811.357 954.107 802.522 960.407 792.82 965.219 L 791.551 965.842 C 783.513 965.184 775.676 964.19 767.731 962.803 C 756.029 969.137 751.291 975.839 745.441 987.434 L 744.427 985.694 C 742.422 982.289 740.873 978.941 739.562 975.222 C 725.912 936.52 738.895 898.695 755.894 863.586 C 755.267 871.981 752.859 885.669 756.237 893.417 L 758.371 894.018 C 772.571 888.701 790.231 865.156 797.953 852.252 C 797.144 849.697 796.296 847.109 795.818 844.468 C 794.189 835.456 798.372 829.816 803.352 822.92 C 803.037 830.096 802.516 837.275 802.09 844.445 C 805.493 839.901 809.26 835.444 811.237 830.063 z"/>
    <path transform="translate(0,0)" fill="rgb(254,254,254)"
          d="M 853.509 840.784 L 855.249 841.231 C 854.785 842.991 855.084 842.844 854.149 843.919 C 847.672 851.364 842.515 855.811 838.675 865.17 A 294.295 294.295 0 0 0 829.749 863.621 C 827.271 863.717 826.235 863.987 823.954 862.951 L 823.837 860.572 C 830.092 851.127 843.59 845.398 853.509 840.784 z"/>
    <path transform="translate(0,0)" fill="rgb(30,30,29)"
          d="M 952.804 874.616 C 937.725 871.513 921.755 870.533 907.045 867.061 C 904.242 866.399 900.915 865.594 899.285 863.029 C 900.488 861.287 901.073 860.987 903.051 860.297 C 906.863 858.968 910.669 858.822 914.21 860.563 C 910.783 861.369 907.077 861.842 904.044 863.655 C 912.558 866.415 923.183 865.549 932.143 866.697 C 949.358 868.902 965.391 873.57 982.905 873.236 C 984.991 874.19 986.709 874.963 988.975 875.466 C 976.675 877.251 964.249 877.008 951.888 877.613 C 950.502 877.681 950.824 877.774 949.261 878.604 C 936.145 879.255 919.418 882.005 909.284 890.951 L 908.56 892.782 C 914.599 895.817 923.776 895.392 930.468 897.318 C 925.152 900.216 910.105 899.016 903.949 897.765 L 902.384 895.231 C 902.574 893.787 902.44 892.676 903.393 891.499 C 912.585 880.143 939.521 876.384 952.804 874.616 z"/>
    <path transform="translate(0,0)" fill="rgb(254,254,254)"
          d="M 1022.86 891.84 C 1023 886.486 1022.71 881.004 1024.62 875.937 L 1025.79 876.276 C 1029.49 884.897 1028.8 898.76 1025.34 907.551 C 1025.32 907.613 1025.27 907.667 1025.24 907.726 C 1024.05 912.967 1022.56 917.811 1020.67 922.837 C 1017.43 928.771 1014.61 935.119 1010.32 940.374 C 1005.88 939.39 1001.37 938.528 996.956 937.406 A 295.665 295.665 0 0 1 967.157 923.623 C 978.4 925.517 989.239 929.443 1000.22 932.47 C 1003.02 933.982 1006.69 934.724 1009.74 935.674 C 1012 931.12 1013.81 926.347 1015.73 921.644 C 1008.12 915.978 1001.3 908.958 994.228 902.622 C 986.279 895.496 978.006 888.767 970.143 881.538 C 987.689 889.738 1006.54 902.912 1016.9 919.606 C 1019.16 914.158 1020.56 908.582 1022.02 902.883 C 1022.53 899.144 1022.9 895.616 1022.86 891.84 z"/>
    <path transform="translate(0,0)" fill="rgb(30,30,29)"
          d="M 944.187 920.625 C 950.936 917.994 991.784 925.928 999.291 929.981 C 1000.31 930.53 1000.53 930.862 1001.23 931.61 L 1000.22 932.47 C 989.239 929.443 978.4 925.517 967.157 923.623 A 295.665 295.665 0 0 0 996.956 937.406 L 992.723 938.937 C 992.55 941.851 997.333 946.184 999.337 948.487 C 1002.12 951.686 1005.5 955.043 1007.63 958.709 C 1011.46 965.274 1012.98 973.44 1017.57 979.516 C 1022.11 978.343 1026.64 970.642 1028.95 966.598 C 1029.92 964.881 1030.62 963.129 1031.38 961.31 C 1034.53 953.782 1037.53 946.66 1039.51 938.72 C 1040.55 940.504 1040.68 940.974 1040.91 942.927 C 1037.91 953.472 1033.97 966.331 1027.21 975.126 C 1025 977.995 1020.54 980.493 1019.07 983.634 C 1017.96 986.011 1018.65 987.88 1019.35 990.214 C 1021.49 991.435 1022.03 991.696 1024.6 991.008 C 1031.32 989.211 1035.99 979.476 1038.57 973.743 C 1039.91 976.715 1039.97 978.013 1038.7 981.104 C 1035.02 990.101 1026.38 989.993 1022.29 995.334 C 1019.21 999.353 1024.62 1002.41 1019.33 1007.35 C 1017.26 992.889 1014.6 979.184 1007.86 966.099 C 993.759 938.7 972.23 929.783 944.187 920.625 z"/>
    <path transform="translate(0,0)" fill="rgb(254,254,254)"
          d="M 949.261 878.604 C 952.958 878.589 958.445 877.844 961.747 879.518 C 962.898 887.968 963.518 891.987 970.525 897.575 C 976.674 902.479 983.655 906.266 989.785 911.225 C 971.732 906.347 948.755 898.161 930.468 897.318 C 923.776 895.392 914.599 895.817 908.56 892.782 L 909.284 890.951 C 919.418 882.005 936.145 879.255 949.261 878.604 z"/>
    <path transform="translate(0,0)" fill="rgb(30,30,29)"
          d="M 857.735 899.15 C 859.868 899.185 861.082 899.76 862.975 900.705 L 863.605 902.899 C 863.085 904.103 863.101 904.239 862.177 905.424 C 857.086 911.954 817.29 934.796 809.2 935.307 C 805.774 935.523 805.291 934.236 803.013 932.045 C 802.704 930.368 802.34 928.714 801.952 927.054 L 800.551 927.02 L 798.217 929.743 C 798.444 933.655 802.355 935.024 802.958 939.086 L 801.558 940.071 C 797.256 939.237 795.88 936.206 793.293 932.854 C 791.033 932.557 791.364 932.721 789.549 933.771 C 788.739 938.498 793.308 941.76 792.662 946.476 L 791.314 946.443 L 789.179 943.403 C 788.087 940.859 786.994 939.534 785.121 937.574 L 784.153 938.229 C 784.607 942.453 786.195 946.117 787.725 950.039 C 785.343 947.293 781.66 941.563 778.325 940.54 C 776.872 941.47 775.429 942.403 774.009 943.384 L 773.588 944.901 C 773.335 943.705 773.174 943.921 773.792 942.782 C 777.867 935.272 818.328 912.353 827.468 908.505 C 837.294 904.368 847.377 901.587 857.735 899.15 z"/>
    <path transform="translate(0,0)" fill="rgb(254,254,254)"
          d="M 984.622 853.795 L 993.002 855.779 A 226.136 226.136 0 0 1 1023.94 870.862 C 1009.96 870.164 996.725 871.328 982.905 873.236 C 965.391 873.57 949.358 868.902 932.143 866.697 C 923.183 865.549 912.558 866.415 904.044 863.655 C 907.077 861.842 910.783 861.369 914.21 860.563 C 937.666 859.903 961.089 853.601 984.622 853.795 z"/>
    <path transform="translate(0,0)" fill="rgb(65,65,65)"
          d="M 1020.67 922.837 L 1021.67 923.268 C 1030.78 914.159 1026.65 889.438 1033.2 881.862 C 1034.58 883.38 1034.35 882.765 1034.86 884.527 C 1038.24 896.128 1041.81 907.429 1042.42 919.559 L 1042.69 919.336 A 236.604 236.604 0 0 1 1043 904.923 C 1046.03 917.233 1043.21 930.722 1040.91 942.927 C 1040.68 940.974 1040.55 940.504 1039.51 938.72 C 1037.53 946.66 1034.53 953.782 1031.38 961.31 C 1030.62 963.129 1029.92 964.881 1028.95 966.598 C 1026.64 970.642 1022.11 978.343 1017.57 979.516 C 1012.98 973.44 1011.46 965.274 1007.63 958.709 C 1005.5 955.043 1002.12 951.686 999.337 948.487 C 997.333 946.184 992.55 941.851 992.723 938.937 L 996.956 937.406 C 1001.37 938.528 1005.88 939.39 1010.32 940.374 C 1014.61 935.119 1017.43 928.771 1020.67 922.837 z"/>
    <path transform="translate(0,0)" fill="rgb(30,30,29)"
          d="M 922.271 840.619 A 177.905 177.905 0 0 1 927.869 841.529 L 928 842.549 C 923.712 844.162 919.163 844.547 914.641 845.123 C 911.506 845.522 905.83 846.892 903.372 844.98 C 903.759 844.123 903.761 844.003 904.447 843.153 C 912.077 833.692 958.795 813.308 972.948 803.738 C 985.231 795.434 994.705 783.502 1005.29 773.23 C 1008.22 770.392 1009.68 769.277 1013.79 769.168 C 1006.17 775.946 998.944 782.692 992.608 790.714 C 1013.17 785.679 1035.72 781.14 1056.91 780.782 L 1057.24 782.061 C 1053.79 784.695 1004.75 790.991 995.141 793.396 C 993.406 799.843 991.6 806.229 989.213 812.471 C 985.394 822.455 977.794 834.23 977.341 844.867 C 980.884 849.088 991.546 850.521 996.733 853.248 C 1005.63 857.379 1015.67 861.265 1023.39 867.395 C 1029.3 872.094 1034.25 878.906 1039.15 884.637 C 1058.48 907.253 1079.46 932.362 1089.4 960.82 C 1090.16 962.985 1090.76 964.986 1090.38 967.299 C 1085.4 958.642 1081.68 949.183 1076.74 940.446 C 1065.89 921.268 1052.59 904.561 1038.46 887.786 C 1040.29 893.437 1042.27 899.004 1043 904.923 A 236.604 236.604 0 0 0 1042.69 919.336 L 1042.42 919.559 C 1041.81 907.429 1038.24 896.128 1034.86 884.527 C 1034.35 882.765 1034.58 883.38 1033.2 881.862 C 1026.65 889.438 1030.78 914.159 1021.67 923.268 L 1020.67 922.837 C 1022.56 917.811 1024.05 912.967 1025.24 907.726 C 1025.27 907.667 1025.32 907.613 1025.34 907.551 C 1028.8 898.76 1029.49 884.897 1025.79 876.276 L 1024.62 875.937 C 1022.71 881.004 1023 886.486 1022.86 891.84 C 1019.91 887.049 1020.27 879.849 1020.03 874.314 C 1009.55 873.86 999.359 873.845 988.975 875.466 C 986.709 874.963 984.991 874.19 982.905 873.236 C 996.725 871.328 1009.96 870.164 1023.94 870.862 A 226.136 226.136 0 0 0 993.002 855.779 L 984.622 853.795 C 973.318 851.641 979.229 846.719 975.585 841.985 C 968.902 839.025 958.594 842.107 951.349 842.208 C 954.05 841.554 956.741 840.973 959.468 840.438 C 947.4 839.45 934.299 839.16 922.271 840.619 z"/>
    <path transform="translate(0,0)" fill="rgb(254,254,254)"
          d="M 907.383 842.459 C 920.378 835.976 932.741 828.822 945.499 821.941 C 962.318 812.868 978.641 806.276 992.143 792.28 C 988.987 803.538 986.137 816.033 980.178 826.161 C 974.834 835.242 969.262 838.124 959.468 840.438 C 947.4 839.45 934.299 839.16 922.271 840.619 C 917.29 841.05 912.337 841.793 907.383 842.459 z"/>
    <path transform="translate(0,0)" fill="rgb(65,65,65)"
          d="M 725.463 411.134 C 712.569 398.606 704.21 384.578 704.048 365.99 C 703.925 351.831 707.9 329.586 718.046 318.99 C 725.181 311.537 750.566 297.909 760.619 292.042 C 848.348 240.847 942.983 214.31 1044.86 215.074 A 730.942 730.942 0 0 1 1335.57 280.072 C 1353.21 287.993 1370.99 296.704 1387.92 306.032 C 1395.95 310.461 1403.74 317.876 1412.39 320.835 C 1425.33 325.262 1442.29 323.994 1456.07 325.56 C 1472.85 327.467 1489.69 330.711 1506.25 333.986 A 562.552 562.552 0 0 1 1797.7 489.575 C 1857.72 551.073 1892.15 607.826 1907.47 693.246 C 1907.31 692.91 1907.14 692.575 1906.98 692.237 C 1901.8 681.299 1898.57 669.335 1893.75 658.179 C 1884.48 636.747 1871.89 618.772 1858.25 600.009 C 1830.05 641.787 1848.21 752.27 1854.08 801.228 A 4002.79 4002.79 0 0 1 1864.72 896.578 C 1868.04 933.027 1868.75 970.551 1867.13 1007.1 L 1860.4 1007.93 C 1857.16 996.769 1856.98 983.21 1855.07 971.559 C 1852.41 955.323 1848.44 939.236 1845.04 923.134 C 1847.8 920.019 1847.49 918.576 1847.97 914.527 C 1841.64 900.932 1839.24 884.331 1834.38 869.955 C 1832.28 871.645 1831.33 872.148 1830.31 874.696 C 1817.23 855.984 1795.23 833.581 1771.97 829.053 C 1759.25 826.576 1749.45 829.863 1739.02 836.977 C 1729.15 843.712 1725.29 856.613 1723.35 867.911 C 1714.86 917.497 1726.41 975.669 1731.34 1025.28 C 1726.8 1020.74 1724.36 1013.46 1722.37 1007.44 L 1720.37 1008.62 C 1721.94 1014.12 1724.34 1020.24 1721.88 1025.83 C 1721.75 1026.13 1721.56 1026.4 1721.4 1026.69 C 1705.09 992.165 1693.62 970.059 1655.74 956.434 C 1621.46 944.102 1583.54 952.312 1551.49 967.49 C 1510.7 986.803 1482.74 1022.58 1467.96 1064.66 A 172.993 172.993 0 0 0 1458.44 1112.88 C 1450.04 1110.84 1441.48 1110.27 1433.04 1108.57 L 1435.71 1094.08 C 1413.64 1086.23 1392.63 1088.58 1371.54 1098.53 C 1362.81 1102.66 1355.04 1108 1347.73 1114.28 C 1371.59 1108.08 1393.89 1099.2 1419.06 1100.04 C 1400.38 1111.67 1382.69 1122.58 1369.66 1140.78 C 1389.18 1140.95 1434.79 1136.46 1451.03 1142.39 L 1452.36 1143.75 C 1451.34 1146.43 1447.64 1147.54 1445.06 1148.71 C 1437.01 1152.35 1428.71 1155.4 1420.7 1159.14 A 232.886 232.886 0 0 0 1454.73 1161.94 C 1475.17 1162.18 1512.78 1157.56 1530.36 1160.34 C 1532.85 1160.73 1534.08 1161.19 1535.68 1163.11 C 1534.28 1167.35 1527.71 1169.67 1523.84 1171.62 A 1380.49 1380.49 0 0 1 1490.78 1187.72 C 1500.47 1193.67 1510.49 1198.26 1521.41 1201.49 C 1540.07 1206.99 1564.93 1207.95 1581.5 1213.97 C 1583.7 1214.77 1584.93 1215.25 1585.87 1217.47 C 1581.97 1221.48 1545.81 1223.98 1538.35 1224.56 A 116.96 116.96 0 0 0 1583.06 1248.94 C 1597.01 1252.99 1615.44 1254.88 1627.3 1263.66 C 1613.94 1265.46 1600.53 1267.58 1587.08 1268.57 C 1600.94 1277.53 1639.62 1296.03 1647.47 1307.46 C 1642.49 1310.51 1630.44 1308.99 1624.6 1308.91 C 1631.74 1316.52 1638.55 1322.67 1647.78 1327.66 C 1659.22 1333.86 1691.32 1341.69 1697.94 1350.46 L 1697.76 1352.09 C 1690.64 1354.72 1673.59 1352.79 1665.13 1353.11 C 1672.66 1363.15 1680.14 1372.62 1689.14 1381.43 C 1701.69 1393.71 1718.35 1405.21 1727.57 1420.16 C 1727.69 1420.34 1727.8 1420.52 1727.92 1420.7 A 926.208 926.208 0 0 1 1693.87 1407.57 L 1695.15 1406.39 C 1693.67 1404.79 1690.66 1403.24 1688.49 1402.89 C 1687.36 1402.7 1687.08 1402.82 1686.08 1403.02 C 1686.67 1405.29 1686.1 1404.2 1687.83 1405.98 C 1689.33 1407.53 1690.46 1409.12 1691.59 1410.94 L 1692.39 1412.2 C 1699.67 1423.85 1730.94 1480.3 1731.06 1491.79 L 1729.38 1495.31 C 1721.58 1485.61 1713.45 1476.84 1704.3 1468.39 C 1711.67 1485.89 1717.86 1504.2 1721.44 1522.88 C 1722.59 1544.55 1721.22 1563.43 1713.27 1583.88 C 1699.04 1620.49 1673.06 1655.92 1644.16 1682.28 C 1597.3 1725.03 1520.4 1763.38 1460.2 1782.89 C 1426.09 1793.95 1390.77 1800.99 1355.96 1809.34 C 1328.36 1815.97 1301.1 1823.31 1273.26 1828.97 A 6823.96 6823.96 0 0 0 1190.25 1846.11 C 1175.28 1849.23 1158.52 1850.87 1144.46 1856.98 C 1144.09 1858.02 1143.73 1858.83 1143.67 1859.98 C 1143.14 1870.16 1160.15 1886.74 1166.51 1894.19 C 1154.17 1894.07 1141.17 1893.47 1129.32 1889.74 C 1116.56 1885.72 1109.19 1878.73 1103.24 1867.12 C 1098 1871.62 1091.81 1878.05 1091.14 1885.25 C 1090.51 1892.11 1094.48 1896.62 1098.7 1901.47 C 1023.97 1897.5 895.234 1952.9 838.419 2002.21 C 862.753 1958.69 903.107 1927.5 941.51 1897.2 C 930.809 1894.75 917.442 1893.66 907.819 1888.32 C 908.695 1885.23 915.491 1885.62 918.398 1885.43 C 932.669 1884.5 956.6 1885.66 969.426 1881.51 C 976.962 1879.07 984.575 1874.01 991.425 1870.06 C 980.557 1862.91 968.527 1860.17 956.903 1854.74 A 240.058 240.058 0 0 1 995.153 1853.96 C 1004.38 1854.43 1014.54 1856.16 1023.7 1854.74 C 1031.67 1853.5 1039.54 1848.98 1046.99 1845.98 C 1053.39 1843.41 1059.86 1841.49 1066.51 1839.7 C 1052.39 1832.97 1037.8 1828.76 1022.83 1824.4 C 1047.45 1819.74 1072.17 1819.4 1095.89 1827.91 C 1095.54 1805.09 1103.26 1791.97 1117.95 1775.45 C 1119.85 1794.12 1125.71 1806.32 1135.43 1822.09 C 1214.79 1801.79 1295.89 1781.98 1372.24 1752.03 C 1433.12 1728.16 1516.96 1692.29 1565.57 1648.64 C 1585.59 1630.66 1601.72 1609.64 1612.41 1584.89 C 1623.96 1558.16 1629.85 1524.9 1618.8 1497.04 C 1612.31 1498.99 1600.96 1490.2 1592.67 1490.79 L 1593.26 1491.53 C 1589.79 1492.05 1587.47 1493.25 1584.65 1495.36 C 1561 1513.01 1549.98 1548.15 1545.69 1575.93 C 1510.93 1580.7 1486.59 1596.59 1462.7 1622.07 C 1464.55 1606.23 1469.89 1594.25 1477.81 1580.56 C 1448.65 1589.93 1421.93 1600.12 1400.64 1623.17 C 1407.65 1605.25 1412.76 1591.49 1425.43 1576.69 C 1407.49 1580.88 1389.31 1588.16 1374.65 1599.43 C 1378 1590.7 1382.27 1583.1 1388.3 1575.91 C 1408.77 1551.54 1434.96 1547.92 1465.05 1544.99 C 1488.63 1542.69 1523.27 1503.34 1538.45 1484.68 C 1529.24 1482.81 1520.21 1479.98 1511.22 1477.26 C 1504.59 1480.06 1471.37 1482.76 1461.05 1484.52 C 1450.75 1486.28 1428.69 1493.11 1419.94 1492.59 C 1406.56 1503.52 1314.12 1530.15 1293.55 1535.26 C 1268.98 1541.36 1252.04 1538.38 1230.2 1554.59 C 1233.82 1544.52 1236.89 1538.02 1244.7 1530.39 C 1231.91 1535.68 1221.12 1541.48 1209.83 1549.5 C 1213.16 1544.03 1216.82 1538.58 1219.47 1532.75 C 1197.84 1532.61 1172.16 1542.53 1152.2 1550.9 C 1148.02 1552.65 1134.04 1560.83 1130.44 1560.07 C 1124.5 1570.21 1119.75 1580.8 1115.08 1591.57 C 1078.63 1598.57 1036.45 1604.13 1010.13 1632.72 C 1014.27 1613.2 1021.21 1601.1 1036.71 1588.66 C 1017.04 1594.9 993.355 1600.44 977.596 1614.28 L 971.071 1619.99 L 970.423 1619.2 C 976.722 1608.5 984.96 1596.68 992.808 1587.1 C 1008.35 1569.57 1026.46 1565.16 1048.88 1563.09 C 1053.34 1562.68 1060 1562.56 1064.04 1560.64 C 1072.92 1556.41 1102.87 1478.88 1108.97 1465.5 A 1654.09 1654.09 0 0 1 1136.21 1409.36 A 456.641 456.641 0 0 1 1107.8 1291.11 C 1106.47 1277.63 1106.94 1248.31 1103.61 1237.12 C 1098.2 1280.86 1104.34 1333.6 1114.15 1376.35 C 1116 1384.39 1117.58 1394.19 1121.37 1401.55 C 1122.95 1404.63 1125.32 1407.47 1127.43 1410.21 C 1099.58 1395.2 1075.47 1378.56 1051.61 1357.81 C 1031.18 1340.04 1014.36 1317.96 1001.21 1294.33 C 992.992 1279.54 982.972 1260.5 979.97 1243.69 C 977.962 1232.45 980.938 1218.84 982.162 1207.54 C 984.58 1185.24 986.892 1162.8 992.264 1140.97 C 998.014 1117.6 1005.76 1094.47 1012.21 1071.24 C 1015.02 1061.11 1018.43 1050.64 1019.65 1040.19 C 1020.88 1029.6 1020.07 1017.97 1019.33 1007.35 C 1024.62 1002.41 1019.21 999.353 1022.29 995.334 C 1026.38 989.993 1035.02 990.101 1038.7 981.104 C 1039.97 978.013 1039.91 976.715 1038.57 973.743 C 1035.99 979.476 1031.32 989.211 1024.6 991.008 C 1022.03 991.696 1021.49 991.435 1019.35 990.214 C 1018.65 987.88 1017.96 986.011 1019.07 983.634 C 1020.54 980.493 1025 977.995 1027.21 975.126 C 1033.97 966.331 1037.91 953.472 1040.91 942.927 C 1043.21 930.722 1046.03 917.233 1043 904.923 C 1042.27 899.004 1040.29 893.437 1038.46 887.786 C 1052.59 904.561 1065.89 921.268 1076.74 940.446 C 1081.68 949.183 1085.4 958.642 1090.38 967.299 C 1090.76 964.986 1090.16 962.985 1089.4 960.82 C 1079.46 932.362 1058.48 907.253 1039.15 884.637 C 1034.25 878.906 1029.3 872.094 1023.39 867.395 C 1015.67 861.265 1005.63 857.379 996.733 853.248 C 991.546 850.521 980.884 849.088 977.341 844.867 C 977.794 834.23 985.394 822.455 989.213 812.471 C 991.6 806.229 993.406 799.843 995.141 793.396 C 1004.75 790.991 1053.79 784.695 1057.24 782.061 L 1056.91 780.782 C 1062.97 779.714 1074.91 778.867 1080.32 781.874 C 1080.61 782.04 1080.87 782.269 1081.15 782.466 L 1081.22 783.937 C 1066.04 791.49 1050.15 796.416 1035.81 805.7 C 1046.43 811.211 1057.5 816.499 1069.13 819.484 C 1083.62 823.206 1114.25 822.556 1125.5 831.619 L 1125.37 833.275 C 1112.04 837.986 1097.19 838.66 1083.5 842.672 C 1107.51 857.014 1121.02 861.919 1146.68 871.536 C 1151.5 872.937 1165.85 875.922 1168.32 880.337 C 1168.43 880.53 1168.46 880.758 1168.52 880.969 C 1155.92 883.271 1141.12 882.103 1128.24 882.153 C 1138.99 895.439 1153.45 909.601 1167.11 919.76 C 1177.13 927.204 1188.46 933.312 1197.14 942.349 A 1313.12 1313.12 0 0 0 1154.47 933.915 C 1163.62 955.48 1173.54 972.296 1192.88 986.102 C 1197.63 989.491 1211.92 996.795 1212.45 1002.31 C 1206.33 1005.38 1188.78 1004.78 1182.15 1002.71 C 1181.82 1002.6 1181.55 1002.37 1181.24 1002.2 C 1178.39 1002.11 1175.68 1001.4 1173.25 1002.97 C 1174 1011.19 1186.3 1024.27 1192.62 1029.47 C 1203.11 1038.08 1216.3 1042.63 1226.72 1051.27 C 1214.51 1051.13 1202.54 1050.75 1190.49 1048.54 C 1203.45 1064.4 1215.95 1075.58 1236.07 1081.04 C 1244.7 1075.85 1252.2 1069.1 1259.67 1062.39 C 1262.11 1058.6 1266.47 1054.91 1269.6 1051.59 C 1277.97 1042.67 1286.6 1033.82 1293.93 1024 C 1322.09 986.278 1345.74 943.856 1360.94 899.193 C 1365.11 886.949 1368.04 874.199 1371.57 861.753 C 1374.97 841.789 1378.36 822.588 1380.17 802.348 C 1380.98 769.631 1382.44 736.896 1381.05 704.174 C 1377.51 620.632 1357.62 540.727 1331.74 461.563 C 1323.77 437.177 1312.58 399.452 1296.24 380.081 C 1290.51 373.288 1277.07 360.483 1268.04 359.777 C 1265.35 361.052 1264.98 361.312 1263.33 363.784 C 1264.48 369.951 1277.94 370.706 1283.03 374.704 C 1311.6 397.146 1355.47 584.751 1361.72 625.826 L 1360.25 626.589 C 1361.78 639.736 1364.86 653.793 1364.47 666.98 C 1364.31 666.767 1364.16 666.551 1364 666.34 C 1345.29 641.887 1332.1 610.028 1308.92 588.951 L 1306.26 589.133 C 1279.72 558.872 1230.68 496.038 1188.03 492.893 C 1173.92 491.854 1157.04 496.366 1146.41 505.876 C 1141.33 510.413 1137.35 516.517 1136.99 523.472 C 1136.55 531.684 1140.9 538.741 1146.38 544.494 C 1156.45 555.065 1169.53 560.69 1180.13 570.139 C 1160.94 566.868 1140.58 560.677 1128.46 544.24 C 1120.54 533.504 1119.99 520.562 1122.28 507.825 C 1124.17 497.237 1130.82 489.761 1139.61 484.055 C 1150.25 477.152 1174.18 468.155 1177.06 454.759 C 1178.25 449.185 1175.69 443.838 1172.52 439.405 C 1157.46 418.329 1109.22 382.047 1084.73 371.805 C 1079.16 394.459 1071.61 415.399 1084.96 437.049 C 1092.17 448.741 1102.48 458.342 1109.84 469.876 C 1092.83 462.482 1067.39 449.014 1060.02 430.821 C 1051.72 410.343 1057.56 378.402 1065.87 358.615 C 1017.65 309.209 958.683 285.361 889.977 284.524 C 840.803 283.926 814.042 292.137 770.39 314.997 C 760.976 319.927 749.041 325.051 741.262 332.335 C 728.267 344.502 724.204 372.407 724.079 389.284 C 724.025 396.662 724.976 403.805 725.463 411.134 z"/>
    <path transform="translate(0,0)" fill="rgb(30,30,29)"
          d="M 1146.68 871.536 C 1151.5 872.937 1165.85 875.922 1168.32 880.337 C 1168.43 880.53 1168.46 880.758 1168.52 880.969 C 1159.69 880.202 1150.54 880.616 1141.67 880.564 C 1145.73 879.772 1149.7 878.958 1153.67 877.77 L 1153.21 876.576 C 1151.3 875.418 1149.62 874.354 1148 872.806 L 1146.68 871.536 z"/>
    <path transform="translate(0,0)" fill="rgb(30,30,29)"
          d="M 1380.17 802.348 C 1382.1 803.138 1381.68 802.511 1382.32 804.208 C 1385.56 812.745 1379.54 851.752 1374.94 859.387 C 1373.87 861.164 1373.52 861.36 1371.57 861.753 C 1374.97 841.789 1378.36 822.588 1380.17 802.348 z"/>
    <path transform="translate(0,0)" fill="rgb(254,254,254)"
          d="M 1317.75 1783.19 L 1318.47 1783.56 C 1309.36 1792.82 1250.69 1814.32 1236.31 1818.27 L 1235.75 1817.85 L 1236.04 1816.62 C 1257.25 1804.23 1294.23 1791.14 1317.75 1783.19 z"/>
    <path transform="translate(0,0)" fill="rgb(254,254,254)"
          d="M 1568.28 1673.75 L 1569.04 1674.36 C 1568.64 1686.84 1539.72 1731.94 1529.41 1742.09 L 1528.63 1740.93 C 1532.19 1727.64 1559.24 1683.99 1568.28 1673.75 z"/>
    <path transform="translate(0,0)" fill="rgb(254,254,254)"
          d="M 1421.49 1747.05 L 1422.26 1747.45 C 1418.29 1756.94 1352.81 1801.37 1341.23 1807.89 L 1340.59 1807.49 C 1345.04 1802.29 1351.51 1798.14 1356.82 1793.77 C 1377.14 1777.07 1397.9 1759.01 1421.49 1747.05 z"/>
    <path transform="translate(0,0)" fill="rgb(254,254,254)"
          d="M 1493.87 1712.01 C 1494.28 1712.45 1494.28 1713.13 1494.45 1713.71 C 1478.09 1733.24 1454.87 1762.75 1435.16 1777.89 L 1434.67 1777.47 C 1435.19 1773.92 1438.07 1770.39 1439.97 1767.38 C 1453.76 1745.52 1473.56 1727.69 1493.87 1712.01 z"/>
    <path transform="translate(0,0)" fill="rgb(254,254,254)"
          d="M 1624.46 1620.73 C 1624.56 1621.37 1624.71 1622 1624.75 1622.64 C 1625.42 1632.73 1602.08 1694.19 1595.4 1702.31 C 1595.31 1701.9 1595.2 1701.49 1595.12 1701.08 C 1592.13 1685.28 1614.76 1633.88 1624.46 1620.73 z"/>
    <path transform="translate(0,0)" fill="rgb(254,254,254)"
          d="M 1701.06 1513.82 C 1702.08 1514.86 1702.9 1516.05 1703.55 1517.35 C 1714.15 1538.35 1716.99 1560.46 1710.01 1582.8 L 1708.54 1585.66 L 1707.36 1585.99 C 1705.95 1568.33 1697.33 1528.97 1701.06 1513.82 z"/>
    <path transform="translate(0,0)" fill="rgb(30,30,29)"
          d="M 1218.63 1048.2 C 1202.32 1039.99 1188.33 1032.77 1177.76 1017.24 C 1173.8 1011.43 1171 1005.3 1166.59 999.708 L 1165.56 998.416 C 1167.99 997.578 1179.84 1000.27 1182.6 1001.31 L 1181.24 1002.2 C 1178.39 1002.11 1175.68 1001.4 1173.25 1002.97 C 1174 1011.19 1186.3 1024.27 1192.62 1029.47 C 1203.11 1038.08 1216.3 1042.63 1226.72 1051.27 C 1214.51 1051.13 1202.54 1050.75 1190.49 1048.54 C 1203.45 1064.4 1215.95 1075.58 1236.07 1081.04 C 1244.7 1075.85 1252.2 1069.1 1259.67 1062.39 C 1260.27 1063.69 1260.51 1063.44 1259.96 1064.65 C 1256.88 1071.46 1243.23 1080.45 1236.7 1083.81 C 1211.41 1076.84 1200.63 1063.85 1183.8 1045.07 C 1195.49 1047.15 1206.75 1048.12 1218.63 1048.2 z"/>
    <path transform="translate(0,0)" fill="rgb(254,254,254)"
          d="M 1679.5 1546.71 C 1681.83 1556.4 1667.29 1631.43 1662.16 1642.37 C 1656.48 1617.75 1667.34 1568.34 1679.5 1546.71 z"/>
    <path transform="translate(0,0)" fill="rgb(254,254,254)"
          d="M 1103.61 1194.76 C 1103.59 1195.98 1103.57 1197.02 1103.35 1198.22 C 1098.32 1225.85 1053.01 1317.16 1031.95 1332.35 C 1030.37 1326.39 1036.85 1319.91 1040.04 1315.11 C 1065.34 1276.97 1084.88 1236.39 1103.61 1194.76 z"/>
    <path transform="translate(0,0)" fill="rgb(254,254,254)"
          d="M 1282.61 322.014 L 1284.45 322.607 C 1279.53 326.936 1271.79 328.866 1265.91 331.7 C 1251.76 338.522 1237.15 345.463 1223.61 353.439 C 1223.01 355.114 1222.37 356.773 1221.75 358.441 C 1217.43 369.999 1206.79 379.351 1203.88 391.003 C 1199.42 408.904 1205.45 431.316 1197.39 450.168 C 1196.66 449.523 1196.13 449.124 1195.55 448.274 C 1190.84 441.341 1194.5 391.256 1198.37 382.848 C 1205.97 366.346 1214.9 375.008 1219.63 348.828 C 1238.01 337.831 1262.38 329.249 1282.61 322.014 z"/>
    <path transform="translate(0,0)" fill="rgb(254,254,254)"
          d="M 1096.62 1038.76 L 1097.65 1040.11 C 1097.5 1046.46 1094.61 1053.96 1092.29 1059.9 C 1077.33 1098.3 1033.46 1129.82 996.892 1145.92 L 996.303 1145.26 C 996.13 1144.21 995.919 1143.23 995.979 1142.16 C 996.043 1141 996.433 1139.57 996.895 1138.51 C 998.612 1134.58 1005.44 1131.5 1009.17 1129.56 C 1028.7 1119.39 1048.27 1106.09 1063.6 1090.24 C 1078.46 1074.87 1087.62 1057.89 1096.62 1038.76 z"/>
    <path transform="translate(0,0)" fill="rgb(254,254,254)"
          d="M 1099.37 1100.71 C 1100.83 1109.5 1096.02 1121.84 1092.63 1129.91 C 1076.26 1168.86 1045.43 1199.69 1014.53 1227.44 C 1005.83 1235.25 996.348 1245.2 985.435 1249.67 C 980.903 1239.15 986.585 1240.02 994.02 1234.66 C 1002.37 1228.65 1010 1221.15 1017.62 1214.23 C 1053.03 1182.09 1083.11 1146.43 1099.37 1100.71 z"/>
    <path transform="translate(0,0)" fill="rgb(254,254,254)"
          d="M 1478.14 1384.89 C 1526.21 1399.36 1590.08 1442.24 1613.86 1486.56 A 132.91 132.91 0 0 1 1618.8 1497.04 C 1612.31 1498.99 1600.96 1490.2 1592.67 1490.79 C 1592.38 1490.37 1592.08 1489.95 1591.79 1489.51 C 1586.63 1481.66 1585.47 1471.18 1580.02 1463.01 C 1560.97 1434.51 1507.83 1402.88 1478.14 1384.89 z"/>
    <path transform="translate(0,0)" fill="rgb(254,254,254)"
          d="M 1395.01 1439.77 A 10440.2 10440.2 0 0 1 1511.22 1477.26 C 1504.59 1480.06 1471.37 1482.76 1461.05 1484.52 C 1450.75 1486.28 1428.69 1493.11 1419.94 1492.59 C 1425.2 1488.58 1434.2 1483.25 1436.46 1476.8 C 1435.45 1473.35 1429.31 1470 1426.47 1467.87 C 1415.03 1459.3 1405.13 1449.83 1395.01 1439.77 z"/>
    <path transform="translate(0,0)" fill="rgb(254,254,254)"
          d="M 1038.46 887.786 C 1052.59 904.561 1065.89 921.268 1076.74 940.446 C 1081.68 949.183 1085.4 958.642 1090.38 967.299 C 1094.07 980.278 1082.81 1002.41 1076.51 1013.69 C 1063.08 1037.74 1043.05 1058 1017.1 1068.19 L 1019.74 1056.48 C 1047.69 1043.82 1068.25 1020.89 1078.99 992.218 A 169.497 169.497 0 0 0 1085.41 970.088 C 1078.22 945.011 1060.35 921.87 1045.67 900.612 C 1051.94 926.501 1047.59 948.975 1038.57 973.743 C 1035.99 979.476 1031.32 989.211 1024.6 991.008 C 1022.03 991.696 1021.49 991.435 1019.35 990.214 C 1018.65 987.88 1017.96 986.011 1019.07 983.634 C 1020.54 980.493 1025 977.995 1027.21 975.126 C 1033.97 966.331 1037.91 953.472 1040.91 942.927 C 1043.21 930.722 1046.03 917.233 1043 904.923 C 1042.27 899.004 1040.29 893.437 1038.46 887.786 z"/>
    <path transform="translate(0,0)" fill="rgb(254,254,254)"
          d="M 1312.23 1225.18 C 1337.11 1226.66 1370.83 1236.82 1394.79 1244.52 C 1390.3 1257.96 1383.91 1270.79 1379.2 1284.19 C 1366.06 1321.52 1351 1376.57 1348.13 1415.98 C 1353.82 1420.26 1360.6 1423.35 1366.86 1426.73 C 1380.03 1433.85 1391.02 1441.35 1401.42 1452.16 C 1378.87 1446.86 1356.75 1433.05 1338.66 1419 C 1341.6 1367.5 1366.49 1297.97 1386.03 1249.97 C 1362.42 1239.42 1335.76 1235.71 1312.23 1225.18 z"/>
    <path transform="translate(0,0)" fill="rgb(254,254,254)"
          d="M 1298.12 1366.87 C 1287.52 1387.82 1276.55 1409.72 1273.24 1433.22 C 1273.99 1435.57 1274.73 1438.02 1275.9 1440.19 C 1285.46 1457.96 1338.28 1471.86 1356.69 1477.39 C 1337.17 1484.69 1319.03 1495.49 1299.39 1502.55 C 1291.03 1505.55 1282.94 1506.44 1274.17 1507.31 C 1250.67 1509.65 1236.31 1516.02 1219.47 1532.75 C 1197.84 1532.61 1172.16 1542.53 1152.2 1550.9 C 1148.02 1552.65 1134.04 1560.83 1130.44 1560.07 C 1143.7 1533.49 1159.74 1506.99 1177.42 1483.1 C 1188.98 1467.48 1208.03 1448.22 1215.78 1431.14 C 1210.61 1409.98 1208.36 1390.65 1210.64 1368.89 C 1213.07 1381.15 1216.24 1392.94 1220.59 1404.67 C 1245.52 1388.81 1270.68 1377.47 1298.12 1366.87 z"/>
    <path transform="translate(0,0)" fill="rgb(254,254,254)"
          d="M 1329.24 395.116 C 1357.69 408.153 1384.04 422.88 1408.92 441.958 C 1485.56 500.722 1564.16 610.682 1607.92 696.422 C 1635.2 749.875 1657.32 806.145 1678.23 862.341 C 1688.74 890.588 1699.21 920.185 1707.44 949.181 C 1712.9 968.438 1716.49 988.339 1722.37 1007.44 L 1720.37 1008.62 C 1710.28 980.951 1697.57 953.958 1686.42 926.664 C 1657.22 855.132 1626.52 784.038 1588.74 716.536 C 1555.44 657.057 1509.81 592.298 1466.04 540.495 A 1286.91 1286.91 0 0 0 1389.96 458.19 C 1369.36 437.676 1345.63 419.273 1329.24 395.116 z"/>
    <path transform="translate(0,0)" fill="rgb(254,254,254)"
          d="M 1288.76 344.893 C 1311.11 338.414 1335.99 336.558 1359.14 334.848 C 1466.01 326.956 1567.81 350.21 1661.69 401.711 C 1744.5 447.133 1842.95 529.614 1877.69 619.807 C 1859.18 596.343 1841.41 571.891 1821.08 549.962 C 1738.43 460.809 1641.43 400.116 1522.9 371.032 C 1500.1 365.437 1477.19 360.365 1453.84 357.639 C 1421.05 353.811 1382.43 350.857 1349.85 357.054 C 1427.28 389.643 1497.36 438.888 1564.08 489.387 C 1607.52 522.27 1650.86 556.994 1689.56 595.457 C 1710.18 615.955 1729.64 638.542 1747.3 661.63 C 1775.34 698.287 1796.3 737.285 1813.67 780.016 C 1827.7 814.524 1836.68 848.026 1843.8 884.498 C 1845.64 893.872 1848.59 904.433 1848.35 913.949 L 1847.97 914.527 C 1841.64 900.932 1839.24 884.331 1834.38 869.955 C 1829.13 855.205 1822.55 840.928 1816.65 826.429 C 1804.74 797.18 1793.59 769.428 1777.19 742.324 C 1758.63 711.646 1735.35 683.655 1711.34 657.138 C 1623.85 560.53 1523.64 493.705 1414.96 424.093 A 1658.55 1658.55 0 0 0 1348.84 383.577 C 1328.53 371.558 1307.19 359.744 1288.76 344.893 z"/>
    <path transform="translate(0,0)" fill="rgb(254,254,254)"
          d="M 1340.23 414.549 C 1347.99 420.683 1360.67 432.238 1366.29 440.039 C 1375.04 452.173 1380.62 469.106 1385.82 483.186 C 1413.26 557.517 1423.01 634.603 1431.17 712.966 C 1435.22 751.8 1440.15 791.142 1442.35 830.11 C 1445.34 883.101 1444.29 936.391 1442.79 989.415 C 1441.84 1023.09 1442.22 1057.68 1436.3 1090.93 C 1424.2 1084.61 1410.87 1082.29 1397.29 1082.76 C 1380.65 1083.33 1364.23 1088.73 1348.9 1094.88 C 1288.57 1119.07 1254.31 1159.43 1211.35 1205.19 A 590.11 590.11 0 0 1 1185.71 1230.36 C 1183.8 1213.77 1185.82 1178.52 1193.8 1163.98 C 1204.85 1143.84 1240.17 1117.26 1259.42 1104.53 C 1269.1 1098.13 1280.55 1093.76 1289.25 1086.09 C 1316.19 1062.35 1347.37 1013.81 1363.2 981.208 C 1371.41 964.287 1376.79 946.665 1382.02 928.659 C 1419.87 798.341 1403.15 636.506 1369.9 506.717 C 1361.91 475.505 1350.79 444.969 1340.23 414.549 z"/>
    <path transform="translate(0,0)" fill="rgb(65,65,65)"
          d="M 1414.39 793.739 C 1417.89 828.208 1414.65 866.53 1409.98 900.807 C 1407.9 916.052 1404.64 931.121 1402.64 946.383 C 1399.29 972.083 1398.75 1000.42 1402.08 1026.14 C 1403.93 1040.49 1407.72 1054.09 1419.58 1063.27 C 1389.57 1053.07 1363.74 1056.75 1334.3 1066.85 L 1314.49 1074.85 C 1327.5 1056.98 1342.5 1041.3 1354.38 1022.43 C 1396.97 954.814 1408.28 871.95 1414.39 793.739 z"/>
    <path transform="translate(0,0)" fill="rgb(254,254,254)"
          d="M 1387.32 986.633 L 1388.65 988.112 C 1390.48 999.825 1384.94 1013.35 1379.86 1023.76 C 1375.12 1033.45 1367.2 1047.87 1356.59 1051.57 L 1355.67 1050.3 C 1355.38 1047.03 1359.55 1041.5 1361.24 1038.49 C 1370.77 1021.53 1377.92 1003.53 1387.32 986.633 z"/>
    <path transform="translate(0,0)" fill="rgb(168,167,167)"
          d="M 0 0 L 88.7728 0 L 108.339 0 L 250.153 0 L 256.289 0 L 324.065 0 L 325.267 0 L 369.639 0 L 536.644 0 L 568.074 0 L 795.734 0 L 797.172 0 L 975.015 0 L 1005.14 0 C 969.556 20.5911 932.322 36.9326 895.001 54.0345 C 837.568 80.3525 780.664 107.88 718.696 121.694 C 704.319 136.285 690.09 150.026 671.86 159.774 C 646.003 173.601 616.837 174.52 589.958 184.949 C 555.317 198.388 529.815 229.209 490.421 229.595 C 444.725 230.044 420.11 168.289 369.568 170.067 C 340.291 187.918 309.152 216.451 283.038 238.993 C 263.83 255.573 229.738 282.583 215.184 301.988 C 206.16 314.02 201.451 330.077 196.04 343.94 C 179.731 385.723 167.743 424.291 155.55 467.452 C 150.145 486.582 146.273 506.453 139.891 525.246 C 197.718 472.714 256.028 450.634 327.804 423.601 C 359.774 411.559 391.958 399.191 425.375 391.845 L 424.012 392.7 C 414.718 398.427 404.105 401.967 394.074 406.184 C 379.569 412.281 365.141 418.633 350.747 424.993 C 268.629 461.274 226.32 485.583 163.367 550.155 C 144.433 569.576 126.17 585.29 119.319 612.479 A 5352.51 5352.51 0 0 0 84.5288 756.51 C 74.9277 798.763 61.2418 854.876 61.9939 898.03 C 87.052 898.21 120.154 898.168 139.436 917.142 C 153.25 930.735 150.092 944.334 174.513 944.766 C 180.656 944.875 186.471 944.348 192.328 942.353 C 198.367 916.609 199.969 888.467 202.24 862.146 C 205.381 825.754 208.954 788.297 207.944 751.771 C 202.991 746.64 197.82 741.707 194.111 735.566 C 193.691 724.29 189.344 699.844 197.259 691.504 C 202.978 685.477 218.091 682.444 226.374 682.725 C 228.41 682.795 228.427 682.777 229.81 684.366 C 230.051 690.185 229.825 695.889 229.534 701.7 C 239.307 699.576 249.082 697.61 259.043 696.573 C 258.59 689.908 257.936 683.212 258.215 676.528 C 269.288 674.739 284.772 671.772 295.623 675.286 C 298.88 679.235 296.989 689.81 296.723 694.933 C 305.904 694.71 314.843 695.441 323.971 696.26 C 323.848 691.209 322.511 683.138 326.139 679.097 C 328.328 676.659 331.435 676.393 334.487 676.664 C 342.537 677.378 350.714 679.41 358.786 680.456 L 359.044 698.731 C 365.281 701.596 371.417 703.347 378.03 705.092 C 379.228 700.047 380.336 695.129 382.4 690.347 C 390.545 691.715 398.792 693.299 406.526 696.283 C 405.5 711.536 404.746 726.884 402.691 742.038 C 398.076 744.55 386.718 749.338 384.578 754.011 C 378.817 766.587 406.016 1007 410.375 1038.19 C 432.677 1057.82 461.13 1070.71 486.347 1086.31 C 487.71 1070.25 488.186 1054.44 488.011 1038.32 C 485.403 1035.21 482.64 1032.15 480.209 1028.9 C 479.96 1021.36 476.894 1004.45 481.724 998.393 C 486.07 992.945 496.569 993.297 502.826 992.665 L 503.456 1008.01 C 507.944 1007.89 512.456 1007.87 516.935 1007.56 C 516.996 1002.16 516.094 995.582 520.075 991.351 C 522.989 988.252 526.669 987.619 530.734 987.595 C 537.475 987.556 544.378 988.24 551.076 988.99 L 551.196 1006.49 C 555.623 1006.73 560.067 1007.07 564.502 1007.07 C 564.777 1002.49 564.575 997.61 566.681 993.449 C 569.171 991.682 570.664 991.778 573.734 992.197 C 576.522 992.577 579.586 993.844 581.291 996.159 C 585.708 1002.16 582.816 1023.78 583.137 1032.1 C 579.794 1034.39 576.317 1036.58 573.088 1039.02 C 575.004 1073.33 579.8 1107.09 584.037 1141.14 C 586.434 1160.41 587.433 1181.26 592.795 1199.89 C 606.383 1208.41 614.321 1213.18 618.26 1229.9 C 623.807 1253.46 620.505 1315.69 641.794 1329.19 C 647.789 1332.99 655.605 1332.92 662.275 1331.2 C 673.705 1328.25 687.007 1321.4 698.443 1327.91 C 706.637 1332.58 714.181 1343.3 719.409 1351.01 C 729.94 1366.54 739.381 1383.58 746.493 1400.92 C 758.937 1431.28 767.306 1478.79 793.847 1499.81 C 810.174 1512.74 832.829 1520.78 851.772 1529.08 C 898.336 1549.49 945.921 1567.48 992.808 1587.1 C 984.96 1596.68 976.722 1608.5 970.423 1619.2 L 971.071 1619.99 L 977.596 1614.28 C 993.355 1600.44 1017.04 1594.9 1036.71 1588.66 C 1021.21 1601.1 1014.27 1613.2 1010.13 1632.72 C 1036.45 1604.13 1078.63 1598.57 1115.08 1591.57 C 1119.75 1580.8 1124.5 1570.21 1130.44 1560.07 C 1134.04 1560.83 1148.02 1552.65 1152.2 1550.9 C 1172.16 1542.53 1197.84 1532.61 1219.47 1532.75 C 1216.82 1538.58 1213.16 1544.03 1209.83 1549.5 C 1221.12 1541.48 1231.91 1535.68 1244.7 1530.39 C 1236.89 1538.02 1233.82 1544.52 1230.2 1554.59 C 1252.04 1538.38 1268.98 1541.36 1293.55 1535.26 C 1314.12 1530.15 1406.56 1503.52 1419.94 1492.59 C 1428.69 1493.11 1450.75 1486.28 1461.05 1484.52 C 1471.37 1482.76 1504.59 1480.06 1511.22 1477.26 C 1520.21 1479.98 1529.24 1482.81 1538.45 1484.68 C 1523.27 1503.34 1488.63 1542.69 1465.05 1544.99 C 1434.96 1547.92 1408.77 1551.54 1388.3 1575.91 C 1382.27 1583.1 1378 1590.7 1374.65 1599.43 C 1389.31 1588.16 1407.49 1580.88 1425.43 1576.69 C 1412.76 1591.49 1407.65 1605.25 1400.64 1623.17 C 1421.93 1600.12 1448.65 1589.93 1477.81 1580.56 C 1469.89 1594.25 1464.55 1606.23 1462.7 1622.07 C 1486.59 1596.59 1510.93 1580.7 1545.69 1575.93 C 1549.98 1548.15 1561 1513.01 1584.65 1495.36 C 1587.47 1493.25 1589.79 1492.05 1593.26 1491.53 L 1592.67 1490.79 C 1600.96 1490.2 1612.31 1498.99 1618.8 1497.04 C 1629.85 1524.9 1623.96 1558.16 1612.41 1584.89 C 1601.72 1609.64 1585.59 1630.66 1565.57 1648.64 C 1516.96 1692.29 1433.12 1728.16 1372.24 1752.03 C 1295.89 1781.98 1214.79 1801.79 1135.43 1822.09 C 1125.71 1806.32 1119.85 1794.12 1117.95 1775.45 C 1103.26 1791.97 1095.54 1805.09 1095.89 1827.91 C 1072.17 1819.4 1047.45 1819.74 1022.83 1824.4 C 1037.8 1828.76 1052.39 1832.97 1066.51 1839.7 C 1059.86 1841.49 1053.39 1843.41 1046.99 1845.98 C 1039.54 1848.98 1031.67 1853.5 1023.7 1854.74 C 1014.54 1856.16 1004.38 1854.43 995.153 1853.96 A 240.058 240.058 0 0 0 956.903 1854.74 C 968.527 1860.17 980.557 1862.91 991.425 1870.06 C 984.575 1874.01 976.962 1879.07 969.426 1881.51 C 956.6 1885.66 932.669 1884.5 918.398 1885.43 C 915.491 1885.62 908.695 1885.23 907.819 1888.32 C 917.442 1893.66 930.809 1894.75 941.51 1897.2 C 903.107 1927.5 862.753 1958.69 838.419 2002.21 C 895.234 1952.9 1023.97 1897.5 1098.7 1901.47 C 1094.48 1896.62 1090.51 1892.11 1091.14 1885.25 C 1091.81 1878.05 1098 1871.62 1103.24 1867.12 C 1109.19 1878.73 1116.56 1885.72 1129.32 1889.74 C 1141.17 1893.47 1154.17 1894.07 1166.51 1894.19 C 1160.15 1886.74 1143.14 1870.16 1143.67 1859.98 C 1143.73 1858.83 1144.09 1858.02 1144.46 1856.98 C 1158.52 1850.87 1175.28 1849.23 1190.25 1846.11 A 6823.96 6823.96 0 0 1 1273.26 1828.97 C 1301.1 1823.31 1328.36 1815.97 1355.96 1809.34 C 1390.77 1800.99 1426.09 1793.95 1460.2 1782.89 C 1520.4 1763.38 1597.3 1725.03 1644.16 1682.28 C 1673.06 1655.92 1699.04 1620.49 1713.27 1583.88 C 1721.22 1563.43 1722.59 1544.55 1721.44 1522.88 C 1722.59 1524.49 1723.64 1525.09 1725.29 1526.1 C 1734.09 1531.45 1742.38 1538.03 1748.53 1546.33 C 1765.86 1525.79 1779.26 1502.39 1809.18 1500.34 C 1814.03 1500.01 1817.89 1500.56 1821.7 1503.66 L 1822.61 1505.66 C 1813.66 1520.77 1788.88 1501.06 1773.94 1564.38 C 1784.59 1554.1 1801.18 1542.89 1816.59 1542.75 C 1821.07 1542.7 1824.11 1543.98 1827.62 1546.63 L 1828.58 1548.54 C 1824.96 1555.51 1813.06 1553.21 1810.74 1562.22 C 1814 1566.9 1871.18 1593.1 1881.28 1598.22 C 1879.02 1587.63 1866.8 1541.6 1870.52 1533.11 C 1873.49 1532.99 1875.23 1533.65 1877.42 1535.74 C 1888.46 1546.23 1900.72 1573.4 1906.47 1587.72 C 1909.18 1594.49 1915.64 1617.68 1919.83 1621.55 C 1932.59 1625.95 1943.03 1632.94 1955.11 1638.58 C 1960.11 1628.67 1964.74 1618.4 1971.59 1609.6 C 1972.67 1616.97 1970.95 1641.51 1973.77 1645.7 L 1974.86 1646.22 C 1988.42 1648.01 2000.18 1657.55 2010.63 1665.68 C 2021.62 1651.17 2033.73 1635.09 2048 1623.73 L 2048 1633.93 L 2048 1699.57 L 2048 2048 L 1447.47 2048 L 490.714 2048 L 0 2048 L 0 1560.16 L 0 1494 L 0 1484.71 L 0 1389.36 L 0 704.372 L 0 0 z"/>
    <path transform="translate(0,0)" fill="rgb(181,179,180)"
          d="M 88.7728 0 L 108.339 0 L 108.085 1.0567 C 101.942 1.29601 95.1341 0.52087 89.1187 1.34252 L 88.7728 0 z"/>
    <path transform="translate(0,0)" fill="rgb(181,179,180)"
          d="M 325.267 0 L 369.639 0 L 367.816 2.82572 C 354.526 -2.49613 337.979 5.53614 325.267 0 z"/>
    <path transform="translate(0,0)" fill="rgb(254,254,254)"
          d="M 256.289 0 L 324.065 0 C 315.612 14.4596 300.697 31.3341 290.36 45.3003 C 274.477 66.7586 259.722 89.3929 242.923 110.117 C 243.105 92.1821 246.126 74.3337 248.658 56.6127 A 3001.47 3001.47 0 0 0 256.289 0 z"/>
    <path transform="translate(0,0)" fill="rgb(254,254,254)"
          d="M 797.172 0 L 975.015 0 C 956.715 10.9889 936.824 20.2621 917.744 29.8412 C 875.967 50.8147 834.181 69.8864 790.712 87.1161 C 770.714 95.0426 750.71 103.45 729.753 108.487 C 755.084 77.1169 783.588 38.1218 797.172 0 z"/>
    <path transform="translate(0,0)" fill="rgb(254,254,254)"
          d="M 108.339 0 L 250.153 0 C 239.78 14.2862 232.351 115.238 225.417 141.123 C 222.185 153.19 214.665 164.62 208.936 175.682 L 170.395 248.706 C 156.915 274.675 145.376 301.507 132.298 327.612 C 130.688 300.534 129.908 273.388 127.711 246.353 C 123.522 194.788 117.418 143.441 113.569 91.8177 A 2792.18 2792.18 0 0 1 109.683 29.0553 C 109.233 20.4471 110.148 9.28367 108.085 1.0567 L 108.339 0 z"/>
    <path transform="translate(0,0)" fill="rgb(254,254,254)"
          d="M 0 0 L 88.7728 0 L 89.1187 1.34252 C 88.1206 86.135 102.308 171.314 111.244 255.411 C 114.354 284.672 119.534 315.784 119.048 345.156 C 118.663 368.352 93.7057 426.737 85.0469 451.442 A 14865.4 14865.4 0 0 0 18.2862 643.189 A 753.989 753.989 0 0 0 6.61765 681.524 C 4.5717 688.836 3.12634 697.517 0 704.372 L 0 0 z"/>
    <path transform="translate(0,0)" fill="rgb(254,254,254)"
          d="M 369.639 0 L 536.644 0 L 568.074 0 L 795.734 0 C 789.855 1.34853 783.713 1.17909 777.705 1.34416 C 777.481 1.5845 777.255 1.82197 777.034 2.06519 C 767.054 13.0807 759.006 27.1436 750.27 39.2585 C 727.393 70.9879 699.504 109.384 665.548 129.858 C 652.587 137.673 637.495 143.193 623.488 148.846 C 604.252 156.61 583.434 158.971 564.151 166.533 C 541.615 175.371 521.068 196.224 496.306 197.954 C 477.196 199.29 461.116 183.139 448.052 171.238 C 435.387 159.701 423.399 146.986 408.718 137.999 C 426.581 124.942 444.056 111.376 461.992 98.4225 C 479.052 86.1025 497.093 74.507 512.76 60.4357 C 532.502 42.7047 549.312 22.0773 566.414 1.87468 C 556.867 1.84845 546.414 2.64933 536.996 1.18705 C 522.3 16.2147 507.842 31.4148 491.864 45.106 C 450.528 80.5278 403.975 109.482 359.321 140.423 C 325.391 163.933 291.996 189.505 256.527 210.683 L 300.562 132.468 C 307.866 119.648 315.711 107.165 322.697 94.158 C 338.775 64.2249 353.263 33.5168 367.816 2.82572 L 369.639 0 z"/>
    <path transform="translate(0,0)" fill="rgb(65,65,65)"
          d="M 1881.28 1598.22 C 1879.02 1587.63 1866.8 1541.6 1870.52 1533.11 C 1873.49 1532.99 1875.23 1533.65 1877.42 1535.74 C 1888.46 1546.23 1900.72 1573.4 1906.47 1587.72 C 1909.18 1594.49 1915.64 1617.68 1919.83 1621.55 C 1932.59 1625.95 1943.03 1632.94 1955.11 1638.58 C 1960.11 1628.67 1964.74 1618.4 1971.59 1609.6 C 1972.67 1616.97 1970.95 1641.51 1973.77 1645.7 L 1974.86 1646.22 C 1988.42 1648.01 2000.18 1657.55 2010.63 1665.68 C 2021.62 1651.17 2033.73 1635.09 2048 1623.73 L 2048 1633.93 L 2048 1699.57 L 2048 2048 L 1447.47 2048 C 1446.68 2046.4 1446.63 2046.08 1446.62 2044.4 C 1453.69 2036.06 1468.6 2030.78 1478.52 2026.71 C 1470.62 2023.48 1440.5 2015.96 1437.26 2010.59 L 1438.54 2009.31 C 1456.27 2003.2 1494.48 2006.95 1512.49 2010.68 C 1503.04 1982.97 1484.17 1961.39 1466.89 1938.43 L 1467.64 1937.37 C 1470.28 1936.66 1472.18 1936.77 1474.78 1937.39 C 1506.32 1944.9 1547.62 1970.01 1564.36 1998.09 C 1572.15 1997.93 1579.96 1997.27 1587.74 1996.81 C 1577.23 1937.91 1547.29 1900.41 1515.19 1852.63 C 1531.02 1858.64 1544.94 1867.9 1558.95 1877.25 C 1596.66 1902.39 1626.08 1928.68 1659.01 1959.6 C 1680.62 1935.85 1703.61 1916.68 1728.88 1897.02 C 1718.26 1893.29 1700.07 1889.04 1692.11 1881.14 C 1690.42 1879.45 1690.34 1879.08 1690.29 1876.82 C 1691.25 1875.99 1691.28 1875.86 1692.64 1875.28 C 1705.76 1869.65 1738.26 1880.84 1750.67 1886.56 C 1737.82 1857.16 1702.41 1839.47 1689.93 1808.44 C 1726.55 1819.87 1746.35 1836.38 1774.19 1861.47 L 1785.63 1854.53 C 1771.77 1805.62 1746.38 1762.98 1718.74 1720.95 C 1773.62 1741.77 1800.36 1777.68 1828.43 1826.9 C 1855.54 1813.66 1873.4 1802.77 1903.67 1795.1 C 1885.31 1777.29 1866.09 1760.76 1849.25 1741.39 C 1843.35 1734.6 1820.61 1709.71 1822 1701.24 C 1822.24 1699.79 1823.4 1699.62 1824.55 1698.95 C 1841.3 1698 1880.06 1722.14 1894.23 1732.86 C 1903.84 1740.13 1912.63 1748.95 1921.75 1756.85 A 613.121 613.121 0 0 0 1906.14 1681.54 C 1898.32 1653.65 1888.41 1626.3 1881.28 1598.22 z"/>
    <path transform="translate(0,0)" fill="rgb(131,129,131)"
          d="M 2048 1633.93 L 2048 1699.57 C 2045.25 1689.8 2045.74 1644.52 2048 1633.93 z"/>
    <path transform="translate(0,0)" fill="rgb(181,179,180)"
          d="M 1919.83 1621.55 C 1932.59 1625.95 1943.03 1632.94 1955.11 1638.58 C 1945.83 1664.43 1941.7 1690.69 1940.44 1718 C 1935.86 1701.93 1933.58 1685.19 1929.99 1668.88 C 1926.96 1655.1 1919.94 1635.04 1919.83 1621.55 z"/>
    <path transform="translate(0,0)" fill="rgb(168,167,167)"
          d="M 1974.86 1646.22 C 1988.42 1648.01 2000.18 1657.55 2010.63 1665.68 C 2006.2 1674.05 1999.09 1682.17 1993.63 1689.99 A 367.766 367.766 0 0 0 1967.71 1732.21 C 1969.98 1713.97 1970.6 1695.13 1971.34 1676.77 C 1971.68 1668.37 1971.01 1658.14 1972.74 1650.03 C 1973.07 1648.48 1973.89 1647.41 1974.86 1646.22 z"/>
    <path transform="translate(0,0)" fill="rgb(254,254,254)"
          d="M 302.162 1007.83 C 318.382 1014.19 333.656 1022.97 348.983 1031.21 A 1706.58 1706.58 0 0 1 422.244 1072.27 C 437.068 1080.95 453.007 1088.85 466.717 1099.26 C 472.301 1103.5 478.059 1108.73 481.01 1115.19 C 484.51 1122.85 484.064 1131.94 480.824 1139.6 C 468.014 1169.88 329.161 1258.47 296.577 1286.34 C 285.061 1296.19 273.94 1307.32 265.118 1319.68 C 276.169 1330.21 289.587 1337.61 302.56 1345.52 C 354.011 1376.86 409.5 1399.75 465.187 1422.29 A 3658.12 3658.12 0 0 0 568.133 1462.78 C 633.224 1486.65 699.384 1508.24 764.909 1530.94 L 886.758 1572.79 C 916.129 1582.98 945.488 1593.84 975.146 1603.14 C 963.802 1609.75 951.206 1613.89 939.282 1619.32 C 926.363 1625.2 913.969 1632.19 901.169 1638.3 C 904.268 1624.64 909.317 1614.56 917.493 1603.22 C 908.991 1608.7 901.098 1614.04 894.05 1621.34 C 886.767 1628.87 868.78 1658.69 860.034 1660 C 858.07 1658.72 858.399 1659.49 858.002 1657.48 C 856.419 1649.44 864.638 1628.83 869.362 1622.66 C 871.609 1619.72 874.605 1617.53 877.734 1615.63 L 876.948 1614.77 C 862.952 1617.67 835.587 1647.4 827.726 1659.41 C 823.519 1665.84 819.842 1672.66 816.106 1679.37 C 815.972 1662.13 819.229 1647.43 825.948 1631.6 C 812.041 1651.56 808.32 1662.87 799.557 1684.85 C 786.121 1688.31 773.699 1693.51 760.961 1698.91 C 725.174 1678.87 688.363 1661.41 651.319 1643.91 C 614.184 1626.36 577.06 1608.63 539.067 1592.99 C 501.888 1577.69 463.674 1564.22 425.689 1551.05 C 392.475 1539.53 359.17 1527.26 325.051 1518.71 C 299.159 1512.21 272.951 1509.31 246.814 1504.47 C 259.587 1511.78 276.588 1515.45 290.528 1520.63 C 320.292 1531.67 349.671 1543.65 379.505 1554.57 C 427.781 1572.24 476.407 1589.23 523.931 1608.88 C 543.608 1617.01 562.811 1626.63 582.111 1635.63 C 610.204 1648.74 638.081 1661.49 665.549 1675.92 C 688.417 1687.93 711.976 1699.41 733.514 1713.71 C 727.651 1717.62 721.815 1721.15 715.559 1724.4 C 701.786 1704.75 685.542 1686.3 662.752 1676.86 L 661.269 1676.23 C 660.971 1676.11 660.67 1675.99 660.37 1675.87 C 678.64 1693.66 692.104 1706.9 697.78 1732.56 C 690.499 1724.06 683.278 1714.49 674.557 1707.43 C 666.37 1700.81 657.12 1695.56 649.081 1688.77 L 648.101 1689.42 C 651.533 1693.91 656.342 1696.83 660.278 1700.84 C 670.305 1711.05 680.244 1726.23 684.689 1739.83 C 653.563 1751.26 624.117 1768.49 597.287 1787.89 C 600.473 1776.99 616.168 1737.77 625.193 1731.95 L 624.613 1730.89 C 616.861 1737.82 608.427 1744.18 601.029 1751.49 C 586.827 1765.53 573.229 1786.66 565.296 1804.79 C 560.129 1807.85 554.915 1810.24 549.387 1812.57 C 549.183 1798.59 548.697 1784.59 549.812 1770.64 C 541.753 1783.87 536.72 1796.68 531.506 1811.14 C 525.309 1798.84 517.897 1791.33 504.563 1786.86 A 148.344 148.344 0 0 0 498.863 1785.08 C 508.15 1798.66 518.77 1814.43 515.368 1832 C 514.98 1834 514.139 1835.33 512.894 1836.94 C 510.459 1837.82 509.204 1838.16 506.732 1837.07 C 501.052 1834.55 495.805 1826.81 489.158 1827.36 L 489.174 1828.8 C 489.432 1829.05 489.693 1829.3 489.947 1829.55 C 494.414 1834.04 494.796 1837.96 495.964 1844.02 C 472.629 1855.85 448.559 1872.53 428.709 1889.54 C 427.713 1891.79 426.3 1893.4 424.723 1895.25 L 422.403 1895.73 L 421.266 1894.76 L 420.98 1890.76 L 419.646 1895.37 L 418.042 1895.8 C 407.513 1883.04 407.53 1876.82 390.651 1870.3 C 395.073 1875 399.54 1879.31 402.351 1885.19 C 402.541 1885.59 402.753 1885.98 402.942 1886.37 C 405.36 1891.48 406.269 1897.64 407.47 1903.14 A 160.838 160.838 0 0 1 387.265 1919.57 C 423.147 1959.56 463.637 2001.3 490.714 2048 L 0 2048 L 0 1560.16 L 0 1494 L 0 1484.71 L 0 1389.36 C 25.6463 1392.12 51.3152 1396.34 76.8008 1400.33 C 91.8907 1402.7 107.936 1404.38 122.631 1408.4 A 550.368 550.368 0 0 0 107.15 1319.2 C 117.739 1335.62 144.163 1394.86 147.374 1412.79 C 189.709 1420.11 231.468 1429.71 273.339 1439.24 C 303.603 1446.13 333.503 1452.18 363.393 1460.71 C 324.928 1433.98 279.642 1412.05 239.103 1387.84 A 870.256 870.256 0 0 1 83.4767 1266.57 C 104.958 1263.19 127.714 1263.56 148.641 1257.77 C 181.58 1248.66 215.01 1236.7 247.026 1224.78 C 287.931 1209.55 327.432 1191 367.844 1174.59 C 391.469 1164.99 416.721 1157.64 439.827 1147.06 C 444.979 1144.7 454.639 1140.4 457.558 1135.48 C 458.727 1133.51 459.118 1132.43 458.42 1130.25 C 451.661 1109.12 327.384 1027.06 302.162 1007.83 z"/>
    <path transform="translate(0,0)" fill="rgb(131,129,131)"
          d="M 403.854 1869.1 L 405.471 1869.87 C 415.759 1874.64 421.47 1881.17 428.709 1889.54 C 427.713 1891.79 426.3 1893.4 424.723 1895.25 L 422.403 1895.73 L 421.266 1894.76 L 420.98 1890.76 C 418.389 1879.96 412.172 1875.84 403.854 1869.1 z"/>
    <path transform="translate(0,0)" fill="rgb(30,30,29)"
          d="M 174.211 1687.74 C 182.592 1679.39 192.599 1671.63 202.216 1664.79 C 250.944 1630.16 317.722 1610.3 376.999 1620.36 C 370.95 1624.66 343.089 1620.55 334.301 1620.69 C 320.436 1620.9 304.336 1624.35 290.889 1627.54 C 260.638 1634.71 227.211 1650.71 201.8 1668.58 C 195.813 1672.79 181.381 1686.55 176.437 1688.41 L 174.211 1687.74 z"/>
    <path transform="translate(0,0)" fill="rgb(65,65,65)"
          d="M 107.15 1319.2 C 117.739 1335.62 144.163 1394.86 147.374 1412.79 C 152.866 1431.66 159.506 1452.58 161.434 1472.15 C 164.993 1484.49 165.749 1498.33 167.002 1511.08 C 173.443 1576.61 168.707 1640.97 156.151 1705.5 C 162.011 1699.52 167.745 1693.06 174.211 1687.74 L 176.437 1688.41 C 181.381 1686.55 195.813 1672.79 201.8 1668.58 C 227.211 1650.71 260.638 1634.71 290.889 1627.54 C 304.336 1624.35 320.436 1620.9 334.301 1620.69 C 343.089 1620.55 370.95 1624.66 376.999 1620.36 C 394.787 1622.72 412.42 1630.69 427.614 1639.99 C 383.798 1632.3 340.257 1646.62 304.274 1671.82 C 264.769 1699.48 231.098 1739.05 220.87 1787.22 C 228.877 1779.95 236.647 1773.43 246.264 1768.39 C 281.892 1749.73 341.46 1742.98 381.227 1744.89 C 393.733 1745.49 409.794 1746.78 420.677 1753.46 L 421.548 1755.27 C 416.309 1760.75 395.304 1758.54 387.048 1760.52 C 344.034 1770.82 298.968 1797.77 274.767 1835.72 C 303.976 1830 331.308 1824.7 360.686 1832.63 C 341.294 1838.34 323.172 1845.26 306.201 1856.51 C 335.983 1870.93 362.744 1897.54 387.265 1919.57 C 423.147 1959.56 463.637 2001.3 490.714 2048 L 0 2048 L 0 1560.16 L 0 1494 L 0 1484.71 L 0 1389.36 C 25.6463 1392.12 51.3152 1396.34 76.8008 1400.33 C 91.8907 1402.7 107.936 1404.38 122.631 1408.4 A 550.368 550.368 0 0 0 107.15 1319.2 z"/>
    <path transform="translate(0,0)" fill="rgb(95,98,97)"
          d="M 0 1494 C 1.30563 1504.15 3.36787 1554.08 0 1560.16 L 0 1494 z"/>
    <path transform="translate(0,0)" fill="rgb(30,30,29)"
          d="M 107.15 1319.2 C 117.739 1335.62 144.163 1394.86 147.374 1412.79 C 152.866 1431.66 159.506 1452.58 161.434 1472.15 L 159.519 1472.23 C 155.653 1464.32 151.554 1438.42 148.787 1427.83 C 145.589 1415.59 122.651 1349.87 116.081 1345.53 C 116.213 1351.55 118.362 1356.33 119.524 1362.08 C 121.536 1372.04 123.861 1388.7 125.027 1398.97 C 128.731 1431.57 130.41 1465.03 129.067 1497.83 C 128.822 1503.81 127.156 1509.31 126.911 1515.29 C 126.586 1523.25 126.392 1546.15 122.383 1552.02 L 120.574 1551.22 C 121.666 1536.49 123.639 1521.84 124.56 1507.08 A 601.31 601.31 0 0 0 122.631 1408.4 A 550.368 550.368 0 0 0 107.15 1319.2 z"/>
    <path transform="translate(0,0)" fill="rgb(254,254,254)"
          d="M 0 1389.36 C 25.6463 1392.12 51.3152 1396.34 76.8008 1400.33 C 91.8907 1402.7 107.936 1404.38 122.631 1408.4 A 601.31 601.31 0 0 1 124.56 1507.08 C 123.639 1521.84 121.666 1536.49 120.574 1551.22 C 118.02 1557.74 118.318 1567.85 117.04 1574.98 C 112.721 1599.05 105.815 1627.6 94.2666 1649.18 C 99.367 1577.19 100.116 1500.12 76.1026 1431.09 C 72.2494 1420.01 68.1355 1408.43 62.0851 1398.37 C 71.0685 1460.88 63.1542 1528.37 47.553 1589.26 C 37.839 1555.52 17.8484 1515.25 0 1484.71 L 0 1389.36 z"/>
</svg>