<svg version="1.1" xmlns="http://www.w3.org/2000/svg" style="display: block;" viewBox="0 0 2048 2048" width="1024"
     height="1024">
    <path transform="translate(0,0)" fill="rgb(254,254,254)"
          d="M 0 0 L 2048 0 L 2048 2048 L 0 2048 L 0 1375.93 L 0 943.523 L 0 0 z"/>
    <path transform="translate(0,0)" fill="rgb(74,74,74)"
          d="M 333.584 1775.53 C 334.188 1784.67 334.895 1793.74 336.155 1802.82 C 337.002 1808.92 338.799 1815.76 338.91 1821.83 C 339.024 1826.88 339.216 1828.02 336.026 1832.11 C 334.054 1832.39 333.143 1832.73 331.331 1831.64 C 327.866 1829.56 325.089 1825.77 324.317 1821.99 C 322.929 1806.7 328.063 1789.61 333.584 1775.53 z"/>
    <path transform="translate(0,0)" fill="rgb(197,197,196)"
          d="M 129.762 1568.74 C 140.922 1573.87 151.663 1580.16 162.619 1585.74 C 181.005 1595.11 199.791 1604.01 218.456 1612.81 A 870.312 870.312 0 0 0 434.786 1683.88 A 1423.07 1423.07 0 0 0 533.18 1697.68 C 547.778 1699.07 573.249 1698.06 586.098 1701.86 L 586.09 1702.66 L 580.839 1703.78 C 554.508 1707.77 526.622 1709.1 499.979 1709.71 C 354.808 1713.06 235.022 1669.33 129.762 1568.74 z"/>
    <path transform="translate(0,0)" fill="rgb(197,197,196)"
          d="M 679.092 689.65 C 681.481 692.773 682.389 698.39 683.521 702.174 C 690.809 726.544 700.364 750.659 710.427 774.025 A 688.088 688.088 0 0 0 777.153 894.613 C 790.877 914.516 806.478 932.84 822.638 950.787 C 905.704 1043.04 1017.84 1117.88 1141.39 1140.45 C 1061.5 1147.2 962.76 1120.84 896.225 1076.76 C 925.744 1136.82 958.73 1193.89 1001.77 1245.4 C 1015.19 1262.55 1030.92 1277.64 1046.9 1292.34 C 1086.11 1328.43 1127.29 1358.91 1174.88 1383.09 C 1146.33 1377.04 1119.95 1367.96 1092.8 1357.3 C 1008.26 1324.1 936.08 1276.64 873.094 1211.11 C 745.556 1078.42 675.594 872.499 679.092 689.65 z"/>
    <path transform="translate(0,0)" fill="rgb(197,197,196)"
          d="M 142.857 879.625 C 160.016 920.369 183.388 958.422 206.295 996.135 A 1235.19 1235.19 0 0 0 797.874 1497.15 C 843.894 1515.94 890.911 1533.63 938.913 1546.67 A 779.769 779.769 0 0 0 981.067 1556.71 C 991.077 1558.8 1001.95 1560.25 1011.55 1563.76 C 965.437 1569.13 917.644 1572.95 871.247 1572.19 C 832.021 1571.55 793.538 1567.38 754.785 1561.67 C 714.18 1555.7 674.054 1548.36 634.292 1538.05 C 566.327 1520.42 497.69 1494.65 433.64 1465.91 C 408.255 1454.51 383.685 1441.39 358.762 1429.04 C 394.543 1469.84 423.376 1495.17 468.303 1525.74 C 388.757 1514.82 286.634 1451.5 222.58 1404.08 C 206.267 1392.01 191.392 1378.25 175.271 1366.07 C 182.466 1381.83 192.121 1396.83 201.291 1411.5 C 277.827 1533.9 405.313 1612.76 537.614 1663.36 C 514.564 1661.09 491.565 1655.5 469.072 1650.12 C 363.995 1624.97 263.336 1575.18 174.278 1514.56 C 146.655 1495.76 119.953 1475.09 93.5951 1454.55 C 62.0508 1429.98 29.8584 1404.33 1.49388 1376.08 C 2.56249 1340.86 1.89655 1305.42 1.94775 1270.18 L 1.73999 1075.69 A 4789.79 4789.79 0 0 1 1.596 987.876 C 1.63779 974.191 0.525605 959.452 2.14977 945.911 A 1196.59 1196.59 0 0 0 125.099 1076.09 C 139.403 1089.07 155.127 1100.39 169.365 1113.33 C 148.887 1040.06 143.283 955.521 142.857 879.625 z"/>
    <path transform="translate(0,0)" fill="rgb(197,197,196)"
          d="M 513.611 2.06323 C 538.811 1.79387 564.001 2.6347 589.2 2.36391 C 558.2 29.1182 527.573 65.0683 502.86 97.9105 C 429.66 195.19 387.415 288.272 367.238 409.049 C 385.669 365.16 443.477 285.426 486.537 263.815 C 462.091 315.535 444.741 372.954 434.555 429.205 C 412.68 550.023 428.704 680.395 488.271 788.773 C 496.859 804.398 506.937 818.872 517.086 833.504 C 515.429 813.415 516.503 793.014 517.808 772.93 C 521.999 708.435 534.408 650.263 555.586 589.172 C 548.356 677.948 556.085 777.901 574.26 864.946 A 1126.6 1126.6 0 0 0 603.262 972.39 C 647.393 1111.44 738.46 1252.91 854.021 1343.09 C 875.666 1359.98 897.281 1375.36 921.771 1387.93 C 931.299 1392.9 941.381 1397.01 951.049 1401.74 C 919.63 1395.74 888.835 1386.77 858.4 1377.04 A 1060.88 1060.88 0 0 1 473.088 1155.01 C 435.067 1120.72 400.724 1083.35 367.513 1044.46 A 954.891 954.891 0 0 1 145.454 490.153 A 949.632 949.632 0 0 1 146.713 331.557 C 150.435 294.761 155.359 254.573 163.8 218.626 A 1551.43 1551.43 0 0 1 178.218 163.242 C 180.572 154.99 185.734 144.281 186.161 135.848 C 186.194 135.203 186.201 134.556 186.221 133.91 L 188.45 132.748 L 187.4 132.537 C 188.991 136.752 185.723 148.585 185.085 153.294 C 182.614 171.53 182.055 190.306 181.854 208.687 C 181.328 256.728 184.706 300.893 195.053 347.811 C 197.879 360.624 200.562 373.672 204.684 386.14 C 221.126 354.412 240.214 324.553 259.503 294.525 C 319.847 200.589 384.186 118.676 466.712 42.9913 C 481.881 29.0795 496.996 14.2417 513.611 2.06323 z"/>
    <path transform="translate(0,0)" fill="rgb(59,59,59)"
          d="M 1358.4 503.301 C 1367.56 482.968 1387.54 455.905 1405.54 442.669 C 1411.81 438.053 1419.26 434.864 1426.5 432.11 C 1459.71 419.481 1505.18 417.534 1537.94 432.556 C 1566.79 445.782 1597.38 476.761 1608.43 506.725 C 1613.15 519.512 1610.94 532.881 1605.19 544.918 C 1598.14 559.669 1584.97 572.012 1575.84 585.665 C 1600.13 576.915 1622.19 564.308 1648.02 576.554 A 76.4715 76.4715 0 0 1 1656.47 581.135 A 335.996 335.996 0 0 0 1602.78 598.089 C 1614.6 603.636 1623.63 613.036 1627.96 625.528 C 1631.06 634.49 1630.54 643.234 1629.62 652.482 C 1631.35 655.13 1632.26 659.017 1631.29 662.088 C 1630.47 664.711 1628.27 665.924 1626.12 667.306 C 1622.41 667.541 1597.67 650.004 1591.77 647.016 L 1590.36 646.312 L 1586.3 647.596 C 1586.56 647.912 1586.79 648.265 1587.09 648.543 C 1590.25 651.469 1596.55 651.966 1600.53 653.998 C 1622.16 665.035 1636.09 685.023 1639.13 708.971 C 1643.52 743.597 1631.1 773.364 1614.48 802.92 C 1610.56 809.887 1604.81 816.726 1603.13 824.607 C 1602.49 827.605 1601.95 831.9 1600.51 834.532 C 1599.87 835.698 1564.14 878.345 1563.44 878.775 C 1559.66 881.114 1554.43 882.566 1550.25 884.133 C 1540.52 897.962 1529.01 912.05 1520.84 926.803 C 1537.52 949.012 1549.75 980.328 1559.69 1006.41 C 1563.53 1016.48 1566.78 1027.87 1571.83 1037.35 C 1577.44 1047.87 1593.86 1046.7 1598.48 1057.42 C 1605.37 1073.45 1607.84 1094.37 1606.79 1111.72 C 1620.39 1132.4 1631.48 1154.36 1643.92 1175.72 C 1671.8 1223.58 1699.42 1271.51 1724.1 1321.12 C 1731.11 1335.22 1740.06 1350.63 1744.59 1365.72 C 1718.01 1354.05 1690.99 1328.93 1674.69 1305.14 C 1666.57 1293.29 1660.01 1280.39 1651.7 1268.71 C 1657.71 1290.82 1678.05 1358.72 1667.83 1377.47 C 1666.85 1379.28 1666.03 1379.93 1664.31 1380.97 C 1655.63 1380.47 1645.34 1375.55 1636.93 1373 A 226.153 226.153 0 0 0 1613.29 1367.32 C 1627.1 1390.96 1658.72 1443.36 1650.91 1470.82 C 1649.09 1477.21 1645.89 1482.71 1641.6 1487.74 C 1646.9 1509.3 1648.52 1532.01 1656.64 1552.62 C 1654.26 1564.9 1649.13 1568.98 1646.19 1579.21 C 1641.76 1594.59 1631.5 1661.03 1633.52 1674.25 C 1633.35 1674.52 1633.17 1674.79 1633 1675.07 C 1626.65 1685.41 1626.79 1745.49 1629.68 1758.54 C 1631.56 1767.04 1642.5 1774.71 1636.9 1784.62 C 1633.9 1789.93 1626.51 1789.82 1623.9 1795.06 C 1626.24 1804.79 1639.31 1836.49 1634.91 1843.76 C 1627.4 1856.15 1601.8 1862.86 1588.51 1865.57 C 1567.44 1869.86 1534.84 1871.14 1515.94 1858.81 C 1513.53 1857.25 1511.52 1855.33 1509.53 1853.28 C 1518.79 1840.01 1531.86 1828.31 1542.26 1815.69 C 1549.83 1804.87 1554.85 1793.99 1559.99 1781.91 C 1559.71 1781.78 1559.44 1781.63 1559.16 1781.5 C 1556.7 1780.37 1553.57 1779.43 1551.69 1777.39 C 1544.11 1769.14 1559.61 1749.6 1561.25 1740.42 C 1563.09 1730.1 1562.69 1719.58 1563.32 1709.16 C 1561.62 1702.34 1563.04 1696.16 1558.92 1690.02 C 1558.66 1653.7 1547.82 1618.45 1538.01 1583.82 C 1533.65 1582.23 1530.11 1581.38 1527.86 1577.01 C 1524.23 1569.96 1529.34 1557.72 1531.27 1550.72 C 1525.58 1541.87 1526.4 1532.62 1524.91 1522.57 C 1515.28 1512.99 1504.14 1504.05 1496.07 1493.1 C 1497.37 1470.45 1501.2 1428.88 1497.34 1407.72 C 1494.8 1393.82 1488.16 1379.13 1480.87 1367.12 C 1446.14 1347.32 1411.19 1334.81 1384.51 1302.74 C 1379.43 1315.48 1376.02 1328.56 1372.81 1341.86 C 1363.24 1381.43 1360.54 1417.38 1369.53 1457.45 C 1364.96 1472.32 1350.79 1495.86 1336.79 1503.3 C 1336.4 1503.51 1336 1503.71 1335.6 1503.91 L 1335 1505.16 C 1331.98 1511.51 1326.1 1527.36 1324.09 1534.19 C 1322.94 1538.11 1324.43 1542.21 1323.8 1546.17 C 1322.87 1551.96 1316.08 1564.42 1311.44 1567.92 C 1310.95 1567.89 1310.46 1567.84 1309.97 1567.81 C 1307.98 1567.69 1308.77 1567.62 1307 1568.11 C 1301.39 1579.63 1295.96 1591.37 1289.34 1602.34 C 1278.64 1620.06 1266.41 1636.92 1257.03 1655.39 C 1251.88 1665.53 1247.96 1676.25 1244.01 1686.89 C 1248.25 1692.73 1253.52 1698.76 1254.35 1706.18 L 1253.25 1708.63 C 1251.4 1709.31 1249.71 1709.68 1247.76 1709.98 C 1245.2 1712.76 1244.07 1715.6 1242.65 1719.07 C 1240.12 1720.83 1237.63 1721.85 1234.75 1722.95 C 1239.5 1736.74 1245.96 1749.44 1253.49 1761.9 C 1245.91 1767.55 1236.31 1770.66 1227.17 1772.73 C 1205.62 1777.63 1182.66 1778.07 1160.71 1780.46 C 1136.1 1783.14 1110.96 1787.74 1086.22 1788.22 C 1070.51 1788.53 1055.45 1785.89 1039.89 1784.87 C 1039.77 1779.08 1039.51 1773.25 1039.53 1767.46 C 1049.65 1763.46 1054.28 1746.58 1064.45 1740.72 C 1070.99 1736.95 1079.89 1737.52 1087.15 1735.75 C 1116.01 1728.71 1140.57 1712.85 1161.5 1692.31 C 1159.45 1690.3 1155.18 1687.04 1154.19 1684.35 C 1153.23 1681.76 1153.42 1678.87 1154.42 1676.32 C 1156.05 1672.14 1160.67 1669.09 1164.76 1667.61 C 1167.73 1666.53 1169.31 1668.03 1171.92 1669.31 C 1188.3 1636.41 1197.92 1604.29 1206.75 1568.85 C 1208.75 1560.81 1211.91 1551.84 1212.59 1543.63 C 1213.1 1537.39 1209.73 1535.93 1206.28 1531.79 C 1208.36 1522.34 1215.31 1519.73 1220.39 1512.34 L 1216.79 1508.41 C 1216.65 1501.04 1221.81 1495.8 1223.86 1489.09 C 1226.91 1479.05 1218.15 1469.26 1214.04 1460.76 C 1211.94 1456.4 1210.55 1451.79 1211.21 1446.91 C 1213.4 1430.79 1232.59 1407.08 1238.76 1389.61 C 1245.4 1370.79 1257.37 1298.92 1251.72 1281.67 C 1248.65 1272.29 1241.87 1263.63 1236.9 1255.11 C 1231.83 1246.43 1227.45 1237.47 1223.12 1228.41 C 1239 1132.39 1256.19 1032.02 1308.86 948.334 C 1306.08 944.339 1303.62 940.128 1301.1 935.973 C 1307.71 926.714 1315.81 918.634 1322.19 909.291 A 140.257 140.257 0 0 1 1320.02 902.977 C 1322.43 896.777 1327.76 891.431 1331.2 885.638 C 1330.79 879.543 1329.99 873.426 1329.34 867.348 C 1302.35 868.518 1256.08 867.679 1231.31 857.609 C 1229.93 834.835 1229.44 812.384 1231.07 789.602 C 1240.02 776.714 1250.74 765.594 1258.94 752.004 C 1255.42 750 1251.75 748.233 1248.14 746.388 C 1271.49 732.015 1293.1 715.639 1317.69 703.272 C 1318.58 701.143 1318.61 700.12 1318.68 697.89 L 1318.7 696.988 C 1335.25 673.484 1362.26 655.788 1389.64 647.551 C 1399.29 644.647 1409.62 643.304 1418.99 639.525 C 1432.08 634.247 1442.96 625.957 1456.72 621.524 C 1452.37 614.217 1448.75 606.407 1444.92 598.812 C 1432.66 601.258 1419.25 605.385 1406.84 606.204 C 1401.72 606.542 1396.14 605.945 1392.33 602.146 C 1388.53 598.372 1387.69 593.101 1387.67 587.985 C 1387.65 582.382 1387.31 581.515 1383.73 577.242 C 1383.52 573.588 1384.33 572.567 1385.94 569.363 C 1384.67 567.395 1383.39 565.637 1382.96 563.285 C 1382.63 561.526 1383.56 560.9 1384.46 559.482 C 1385.84 557.607 1386.92 555.419 1386.81 553.011 C 1386.49 546.147 1378.75 543.546 1374.49 539.075 C 1376.32 532.284 1391.46 524.649 1396.65 518.724 L 1397.55 517.688 C 1395.74 513.348 1393.37 508.928 1394.84 504.328 L 1395.54 503.138 L 1393.77 500.825 C 1394.18 500.3 1394.61 499.78 1395.01 499.249 C 1399.83 492.99 1403.41 486.04 1406.29 478.723 C 1406.34 478.589 1406.4 478.457 1406.45 478.324 C 1388.07 484.271 1373.63 491.436 1358.4 503.301 z"/>
    <path transform="translate(0,0)" fill="rgb(44,44,44)"
          d="M 1570.72 515.533 C 1571.1 515.669 1573.08 516.385 1573.45 516.428 C 1573.81 516.47 1574.17 516.331 1574.53 516.282 C 1578.44 519.521 1580.14 524.095 1582.29 528.592 L 1580.09 529.55 C 1576.46 526.447 1574.3 520.465 1571.41 516.472 L 1570.72 515.533 z"/>
    <path transform="translate(0,0)" fill="rgb(254,254,254)"
          d="M 1512.76 942.626 L 1513.81 942.114 C 1515.51 943.09 1516.19 944.294 1517.2 945.934 C 1519.35 949.436 1522.92 954.712 1521.96 958.802 L 1519.48 957.702 C 1515.16 953.867 1506.73 949.739 1505.17 944.194 C 1507.49 942.287 1509.82 942.784 1512.76 942.626 z"/>
    <path transform="translate(0,0)" fill="rgb(44,44,44)"
          d="M 1385.94 569.363 C 1384.67 567.395 1383.39 565.637 1382.96 563.285 C 1382.63 561.526 1383.56 560.9 1384.46 559.482 C 1394.73 562.856 1405.37 564.475 1415.72 567.507 C 1405.85 568.652 1395.6 567.385 1385.94 569.363 z"/>
    <path transform="translate(0,0)" fill="rgb(44,44,44)"
          d="M 1395.54 503.138 L 1396.9 502.972 C 1413.63 500.81 1419.78 495.019 1436.05 504.425 C 1432.84 503.819 1429.34 502.979 1426.07 503.018 C 1419.43 503.098 1399.07 509.22 1394.84 504.328 L 1395.54 503.138 z"/>
    <path transform="translate(0,0)" fill="rgb(74,74,74)"
          d="M 1569.83 579.904 C 1569.55 581.289 1569.86 580.6 1568.66 581.847 C 1568.2 580.369 1567.72 578.99 1567.15 577.555 C 1565.69 578.319 1564.41 578.871 1562.81 579.291 C 1561.7 573.709 1564.08 562.89 1565.47 557.263 C 1567.12 557.329 1567.8 557.333 1569.29 556.483 C 1569.65 556.276 1569.99 556.028 1570.34 555.8 C 1571.78 564.647 1572.21 571.078 1569.83 579.904 z"/>
    <path transform="translate(0,0)" fill="rgb(254,254,254)"
          d="M 1316.48 723.764 C 1308.54 731.745 1294.43 735.742 1284.32 741.413 C 1293.1 731.348 1318.64 713.769 1331.99 710.335 L 1323.25 718.725 C 1320.76 720.006 1317.53 721.033 1316.48 723.764 z"/>
    <path transform="translate(0,0)" fill="rgb(44,44,44)"
          d="M 1385.4 678.092 L 1386.6 680.447 C 1381.19 690.904 1368.54 700.954 1360.61 709.96 C 1354.13 717.319 1348.13 727.608 1343.93 736.45 L 1342.7 736.858 L 1341.51 736.06 C 1349.73 715.035 1369.72 694.059 1385.4 678.092 z"/>
    <path transform="translate(0,0)" fill="rgb(44,44,44)"
          d="M 1542.87 730.046 L 1543.73 730.997 C 1533.67 739.438 1524.59 748.796 1513.1 755.385 C 1519.13 756.789 1525.08 758.612 1531.03 760.302 L 1529.02 759.928 L 1529.94 762.238 L 1529.6 760.749 C 1524.04 760.407 1518.32 759.258 1512.76 758.607 C 1506.67 758.405 1501.21 759.658 1495.32 760.97 L 1495.51 759.474 C 1500.24 755.912 1506.77 754.435 1511.93 751.337 C 1522.63 744.911 1532.03 736.426 1542.87 730.046 z"/>
    <path transform="translate(0,0)" fill="rgb(254,254,254)"
          d="M 1551.32 571.979 C 1553.51 573.817 1554.98 576.357 1556.17 578.939 C 1558.78 584.625 1559.09 588.589 1557.06 594.423 C 1554.59 596.761 1552.7 596.77 1549.43 597.521 C 1547.64 597.817 1546.83 597.83 1545.1 597.602 L 1543.78 595.669 C 1543.13 587.456 1548.02 579.314 1551.32 571.979 z"/>
    <path transform="translate(0,0)" fill="rgb(254,254,254)"
          d="M 1520.83 962.676 C 1521.96 963.046 1523.25 963.482 1524.25 964.149 C 1528.64 967.091 1543.15 997.062 1544.72 1003.86 L 1543.99 1003.92 C 1537.46 995.331 1529.41 987.53 1522.04 979.625 C 1522.47 977.894 1522.9 976.169 1523.4 974.456 C 1524.28 971.429 1521.73 965.674 1520.83 962.676 z"/>
    <path transform="translate(0,0)" fill="rgb(44,44,44)"
          d="M 1534.91 678.982 L 1535.69 679.913 C 1523.01 697.92 1515.96 719.06 1502.03 735.934 L 1501.21 734.892 C 1504.81 729.427 1506.31 723.481 1508.63 717.451 C 1514.2 702.991 1522.57 688.678 1534.91 678.982 z"/>
    <path transform="translate(0,0)" fill="rgb(44,44,44)"
          d="M 1468.2 768.362 C 1478.48 767 1505.42 776.102 1514.39 781.356 C 1514.85 781.621 1515.29 781.9 1515.74 782.172 L 1515.14 781.537 L 1515 782.772 L 1513.05 783.778 L 1513.27 783.838 C 1497.82 777.025 1486.02 771.844 1468.77 771.339 C 1453.01 773.344 1440.12 789.491 1424.04 788.835 L 1424.77 787.68 C 1439.88 781.498 1451.73 770.903 1468.2 768.362 z"/>
    <path transform="translate(0,0)" fill="rgb(44,44,44)"
          d="M 1586.3 647.596 C 1569.79 646.157 1519.2 669.481 1503.83 677.329 C 1501.65 678.447 1500.63 679.156 1498.03 679.084 L 1498.22 678.195 C 1508.5 674.208 1518.34 667.605 1528.65 663.089 C 1537.14 659.369 1545.72 655.691 1554.44 652.527 C 1568.27 647.507 1581.39 644.344 1593.66 635.888 C 1591.17 639.718 1591.02 640.031 1592.06 644.786 C 1592.13 645.11 1592.21 645.432 1592.29 645.756 L 1590.36 646.312 L 1586.3 647.596 z"/>
    <path transform="translate(0,0)" fill="rgb(44,44,44)"
          d="M 1563.32 1709.16 L 1564.9 1709.73 C 1567.32 1723.08 1563.86 1738.84 1562.28 1752.21 C 1566.79 1752.84 1571.59 1753.13 1575.81 1754.9 C 1568.98 1757.22 1558.92 1751.14 1554.89 1759.23 C 1552.94 1763.15 1551.35 1769.54 1552.53 1773.86 C 1553.54 1777.61 1557.57 1779.1 1560.74 1780.68 C 1561.97 1783.38 1561.17 1785.41 1560.16 1788.1 C 1557.13 1796.19 1551.04 1810.51 1543.83 1815.51 L 1542.26 1815.69 C 1549.83 1804.87 1554.85 1793.99 1559.99 1781.91 C 1559.71 1781.78 1559.44 1781.63 1559.16 1781.5 C 1556.7 1780.37 1553.57 1779.43 1551.69 1777.39 C 1544.11 1769.14 1559.61 1749.6 1561.25 1740.42 C 1563.09 1730.1 1562.69 1719.58 1563.32 1709.16 z"/>
    <path transform="translate(0,0)" fill="rgb(254,254,254)"
          d="M 1574.36 813.5 C 1574.6 813.681 1574.86 813.83 1575.06 814.042 C 1578.31 817.407 1578.16 826.533 1578.55 831.084 C 1575.01 839.045 1568.5 845.454 1564.37 853.235 C 1563.09 851.86 1562 850.518 1561.54 848.648 C 1558.41 836.018 1568.48 823.82 1574.36 813.5 z"/>
    <path transform="translate(0,0)" fill="rgb(254,254,254)"
          d="M 1607.06 1396.86 C 1623.05 1409.97 1633.21 1435.49 1644.52 1452.88 C 1644.61 1459.3 1644.4 1465.43 1643.15 1471.75 L 1641.77 1472.44 C 1637.52 1469.66 1636.9 1458.19 1634.94 1453.22 C 1628.43 1436.75 1610.18 1411.34 1607.06 1396.86 z"/>
    <path transform="translate(0,0)" fill="rgb(254,254,254)"
          d="M 1404.01 648.978 C 1399.87 654.071 1391 670.441 1385.74 672.295 C 1371.53 675.596 1357.15 682.898 1346.13 692.482 C 1341.03 694.603 1337.65 698.482 1335.2 703.269 C 1334.22 705.173 1334.07 705.808 1332.37 707.185 C 1331.93 706.853 1331.41 706.605 1331.04 706.189 C 1330.26 705.296 1329.72 703.839 1330.12 702.708 C 1334.87 689.464 1389.62 654.86 1404.01 648.978 z"/>
    <path transform="translate(0,0)" fill="rgb(254,254,254)"
          d="M 1509.81 846.627 C 1512.33 846.971 1514.67 847.797 1516.88 849.004 C 1518.51 849.894 1518.52 849.536 1519.08 851.407 C 1499.49 864.487 1481.33 879.564 1462.12 893.169 L 1452.99 889.91 A 547.123 547.123 0 0 1 1437.96 882.735 C 1469.43 881.71 1488 868.891 1509.81 846.627 z"/>
    <path transform="translate(0,0)" fill="rgb(254,254,254)"
          d="M 1465.71 979.629 C 1466.09 979.728 1466.47 979.804 1466.84 979.926 C 1483.3 985.409 1537.11 1026.54 1549.52 1039.02 C 1553.88 1043.41 1556.68 1047.98 1559.53 1053.37 C 1550.56 1050 1540.32 1040.28 1532.72 1034.45 C 1508.23 1015.7 1488.52 1000.43 1465.71 979.629 z"/>
    <path transform="translate(0,0)" fill="rgb(44,44,44)"
          d="M 1348.75 912.535 C 1360.57 911.758 1389.55 909.644 1398.77 918.461 C 1401.12 920.71 1399 926.376 1400.93 927.893 C 1405.05 931.136 1428.62 932.33 1435.2 933.545 C 1439.85 934.118 1448.23 933.182 1452.07 935.027 C 1466.1 934.559 1480.78 935.499 1494.68 933.802 C 1498.24 937.245 1502.65 939.717 1502.83 944.771 C 1500.24 943.507 1498.84 941.942 1496.98 939.828 L 1500.03 944.472 L 1499.56 945.708 C 1496.59 943.511 1495.46 941.313 1493.81 938.051 C 1482.82 932.605 1462.47 937.137 1450.21 937.293 C 1452.68 944.809 1454.36 952.895 1460.23 958.534 C 1458.61 959.762 1458.65 959.376 1456.75 959.178 C 1451.04 954.592 1451.65 938.141 1444.3 937.089 C 1430.96 936.09 1416.79 934.735 1403.49 934.464 C 1403.61 949.193 1401.58 960.23 1395.81 973.808 C 1404.83 983.31 1434.29 1001.03 1438.85 1008.9 C 1425.67 1002.94 1405.33 984.955 1393.44 975.514 C 1388.84 978.151 1385.46 980.173 1380.01 979.942 L 1380.7 977.45 C 1385.9 975.836 1391.17 974.088 1393.74 968.916 C 1399.78 956.765 1400.07 933.737 1395.91 921.08 C 1387.66 915.123 1372.2 916.276 1362.49 914.191 C 1357.9 913.203 1353.44 912.897 1348.75 912.535 z"/>
    <path transform="translate(0,0)" fill="rgb(254,254,254)"
          d="M 1505.87 1019.09 C 1519.79 1028.61 1548.68 1046.87 1559.19 1058.79 C 1568.1 1068.89 1573.92 1081.78 1582.78 1092.32 C 1576.48 1090.25 1570.25 1085.07 1564.89 1081.23 C 1540.8 1063.95 1520.72 1045.01 1505.87 1019.09 z"/>
    <path transform="translate(0,0)" fill="rgb(254,254,254)"
          d="M 1534.74 862.671 C 1537.44 864.726 1539.48 867.451 1541.65 870.041 C 1536.14 881.538 1518.99 910.101 1508.31 915.903 C 1504.48 917.986 1501.56 916.806 1497.73 915.507 C 1493.63 913.837 1489.79 911.572 1485.91 909.454 C 1503.19 894.452 1519.09 879.372 1534.74 862.671 z"/>
    <path transform="translate(0,0)" fill="rgb(254,254,254)"
          d="M 1347.37 1369.69 C 1347.59 1369.87 1347.84 1370.03 1348.03 1370.24 C 1352.49 1375.34 1358.04 1447.81 1358.81 1459.28 C 1353.64 1468.68 1345.68 1476.85 1338.67 1484.91 C 1337.01 1486.59 1335.62 1487.49 1333.51 1488.54 L 1331.98 1487.82 C 1332.91 1478.58 1341.88 1470.24 1343.36 1461.04 C 1345.26 1449.25 1344.95 1436.64 1345.24 1424.7 A 1169.96 1169.96 0 0 1 1347.37 1369.69 z"/>
    <path transform="translate(0,0)" fill="rgb(254,254,254)"
          d="M 1535.51 443.754 C 1560.01 458.143 1589.02 485.356 1596.44 513.867 C 1600.23 528.418 1595.01 541.505 1587.43 553.718 C 1581.88 562.657 1575.3 570.874 1569.83 579.904 C 1572.21 571.078 1571.78 564.647 1570.34 555.8 C 1580.84 543.509 1588.4 537.506 1586.64 519.435 C 1583.67 488.903 1556.64 463.466 1535.51 443.754 z"/>
    <path transform="translate(0,0)" fill="rgb(74,74,74)"
          d="M 1346.13 692.482 C 1357.15 682.898 1371.53 675.596 1385.74 672.295 L 1385.4 678.092 C 1369.72 694.059 1349.73 715.035 1341.51 736.06 C 1335.75 735.28 1321.41 731.911 1316.45 729.01 L 1316.48 723.764 C 1317.53 721.033 1320.76 720.006 1323.25 718.725 C 1325.05 720.182 1324 719.652 1326.46 720.188 C 1332.25 718.024 1338.56 710.835 1342.03 705.809 C 1337.46 708.03 1333.14 713.152 1329.4 716.633 L 1328.78 716.594 C 1333.2 709.687 1339.27 698.223 1346.28 694.089 C 1346.76 693.807 1347.26 693.551 1347.74 693.282 L 1346.13 692.482 z"/>
    <path transform="translate(0,0)" fill="rgb(74,74,74)"
          d="M 1352.74 924.492 C 1362.29 924.404 1373.83 923.253 1382.99 925.904 C 1384.92 926.462 1386.53 927.31 1387.41 929.172 C 1391.05 936.937 1388.14 951.064 1385.3 958.957 C 1383.87 962.941 1382.94 964.031 1379.06 965.752 C 1371.78 965.783 1349.72 965.142 1344.13 961.497 C 1342.06 960.153 1341.61 958.762 1340.98 956.459 C 1339.14 949.846 1340.41 933.408 1344.75 927.954 C 1347.02 925.098 1349.4 925.197 1352.74 924.492 z"/>
    <path transform="translate(0,0)" fill="rgb(254,254,254)"
          d="M 1578.87 668.19 C 1586.34 667.642 1594.78 669.456 1601.65 672.47 C 1612.59 677.27 1619.91 686.577 1623.82 697.691 C 1631.72 720.124 1626.09 748.362 1616.1 769.228 C 1611.12 779.643 1595.18 808.093 1584.01 812.04 L 1581.85 810.818 L 1579.86 800.733 C 1597.41 782.101 1612.49 763.407 1617.12 737.53 C 1619.72 723.019 1618.31 708.698 1609.38 696.449 C 1598.56 681.619 1582.74 675.12 1565.18 672.278 C 1569.7 670.646 1574.22 669.386 1578.87 668.19 z"/>
    <path transform="translate(0,0)" fill="rgb(74,74,74)"
          d="M 1500.79 564.845 C 1512.35 574.393 1525.29 586.566 1534.42 598.409 C 1536.4 600.973 1539.12 604.232 1538.7 607.655 C 1527.94 611.837 1516.31 614.785 1505.18 617.839 C 1496.66 620.249 1487.38 622.177 1478.58 623.189 C 1476.73 623.402 1474.76 624.112 1473.27 622.925 C 1475.23 614.625 1484.9 601.374 1488.87 592.944 C 1491.7 586.918 1495.26 571.239 1497.23 567.983 C 1497.81 567.018 1499.88 565.65 1500.79 564.845 z"/>
    <path transform="translate(0,0)" fill="rgb(74,74,74)"
          d="M 1351.87 880.267 C 1377.18 888.581 1419.47 900.35 1433.22 925.614 C 1434.59 928.125 1434.98 930.722 1435.2 933.545 C 1428.62 932.33 1405.05 931.136 1400.93 927.893 C 1399 926.376 1401.12 920.71 1398.77 918.461 C 1389.55 909.644 1360.57 911.758 1348.75 912.535 C 1346.94 902.709 1350.17 890.164 1351.87 880.267 z"/>
    <path transform="translate(0,0)" fill="rgb(254,254,254)"
          d="M 1534.4 1078.21 C 1548.76 1088.18 1570.31 1100.95 1581.29 1114.49 C 1601.37 1139.28 1635.25 1248.51 1641.28 1282.01 A 175.041 175.041 0 0 1 1642.13 1287.12 C 1636.17 1277.12 1632.94 1263.89 1628.78 1252.85 C 1620.75 1231.56 1612.51 1210.32 1602.69 1189.79 C 1590.31 1163.91 1577.51 1136.82 1561.37 1113.09 C 1553.81 1101.99 1541.65 1090.44 1535.41 1079.96 C 1535.07 1079.38 1534.74 1078.8 1534.4 1078.21 z"/>
    <path transform="translate(0,0)" fill="rgb(74,74,74)"
          d="M 1324.97 745.204 C 1326.48 745.012 1327.9 745.071 1329.42 745.104 L 1331.23 747.131 L 1330.86 748.801 C 1327.58 750.798 1321.47 749.657 1317.57 750.144 C 1321.38 753.748 1326.23 752.437 1331.18 752.373 C 1332.19 759.561 1332.76 766.771 1333.92 773.944 C 1314.65 772.617 1282.1 771.802 1264.14 779.033 C 1263.14 779.436 1262.12 779.796 1261.09 780.119 C 1259.51 780.616 1259.55 781.004 1258.6 782.288 C 1264.11 785.456 1286.74 780.146 1295.23 782.705 C 1305.87 785.912 1318.56 784.338 1329.7 786.265 C 1386.6 796.109 1454.85 806.044 1504.66 837.339 C 1497.19 848.101 1486.33 857.598 1474.65 863.466 A 135.069 135.069 0 0 1 1453.77 870.125 C 1419.93 877.836 1393.49 870.035 1364.5 851.801 C 1373.61 847.306 1383.26 844.079 1392.81 840.65 C 1353.22 840.226 1292.31 855.213 1256.5 841.808 A 227.34 227.34 0 0 1 1253.77 834.811 C 1247.31 817.326 1241.58 797.987 1250.23 780.237 C 1262.83 754.408 1291.28 757.311 1314.3 748.966 L 1324.97 745.204 z"/>
    <path transform="translate(0,0)" fill="rgb(74,74,74)"
          d="M 1328.45 962.198 C 1331.78 963.136 1337.87 971.674 1340.52 974.502 C 1341.4 1011.58 1338.01 1049.4 1336.3 1086.48 A 7011.82 7011.82 0 0 0 1331.75 1248.02 C 1331.54 1274.19 1329.82 1302.03 1332.89 1327.95 C 1320.52 1315.85 1306.96 1305.16 1294.74 1292.74 C 1279.86 1274.55 1255.64 1247.28 1246.01 1226.47 C 1249.41 1151.13 1269.77 1073.16 1302.6 1005.31 C 1309.76 990.516 1317.47 974.519 1328.45 962.198 z"/>
    <path transform="translate(0,0)" fill="rgb(74,74,74)"
          d="M 1380.01 979.942 C 1385.46 980.173 1388.84 978.151 1393.44 975.514 C 1405.33 984.955 1425.67 1002.94 1438.85 1008.9 C 1443.76 1018.39 1525.46 1063.96 1534.4 1078.21 C 1534.74 1078.8 1535.07 1079.38 1535.41 1079.96 C 1541.65 1090.44 1553.81 1101.99 1561.37 1113.09 C 1577.51 1136.82 1590.31 1163.91 1602.69 1189.79 C 1612.51 1210.32 1620.75 1231.56 1628.78 1252.85 C 1632.94 1263.89 1636.17 1277.12 1642.13 1287.12 C 1648.03 1295.5 1654.42 1348.42 1653.48 1360.09 C 1638.4 1357.47 1623.49 1354.03 1608.35 1351.68 C 1577.29 1346.87 1451.94 1331.46 1433.63 1315.62 C 1424.35 1307.59 1416.51 1280.76 1412.01 1268.63 C 1402.86 1243.92 1393.5 1219.14 1385.76 1193.95 C 1371.09 1146.22 1360.27 1096.09 1352.23 1046.83 C 1348.37 1023.17 1344.51 999.852 1343.77 975.855 C 1355.64 978.069 1367.99 978.758 1380.01 979.942 z"/>
    <path transform="translate(0,0)" fill="rgb(74,74,74)"
          d="M 1369.53 1457.45 C 1360.54 1417.38 1363.24 1381.43 1372.81 1341.86 C 1376.02 1328.56 1379.43 1315.48 1384.51 1302.74 C 1411.19 1334.81 1446.14 1347.32 1480.87 1367.12 C 1488.16 1379.13 1494.8 1393.82 1497.34 1407.72 C 1501.2 1428.88 1497.37 1470.45 1496.07 1493.1 C 1504.14 1504.05 1515.28 1512.99 1524.91 1522.57 C 1526.4 1532.62 1525.58 1541.87 1531.27 1550.72 C 1529.34 1557.72 1524.23 1569.96 1527.86 1577.01 C 1530.11 1581.38 1533.65 1582.23 1538.01 1583.82 C 1547.82 1618.45 1558.66 1653.7 1558.92 1690.02 C 1563.04 1696.16 1561.62 1702.34 1563.32 1709.16 C 1562.69 1719.58 1563.09 1730.1 1561.25 1740.42 C 1559.61 1749.6 1544.11 1769.14 1551.69 1777.39 C 1553.57 1779.43 1556.7 1780.37 1559.16 1781.5 C 1559.44 1781.63 1559.71 1781.78 1559.99 1781.91 C 1554.85 1793.99 1549.83 1804.87 1542.26 1815.69 C 1531.86 1828.31 1518.79 1840.01 1509.53 1853.28 C 1511.52 1855.33 1513.53 1857.25 1515.94 1858.81 C 1534.84 1871.14 1567.44 1869.86 1588.51 1865.57 C 1601.8 1862.86 1627.4 1856.15 1634.91 1843.76 C 1639.31 1836.49 1626.24 1804.79 1623.9 1795.06 C 1626.51 1789.82 1633.9 1789.93 1636.9 1784.62 C 1642.5 1774.71 1631.56 1767.04 1629.68 1758.54 C 1626.79 1745.49 1626.65 1685.41 1633 1675.07 C 1633.17 1674.79 1633.35 1674.52 1633.52 1674.25 C 1635.57 1677.43 1637.11 1681.32 1638.81 1684.72 C 1643.91 1670.03 1656.72 1645.03 1670.13 1636.7 L 1670.39 1637.55 C 1663.74 1650.83 1669.13 1662.42 1673.14 1675.64 C 1677.25 1662.85 1684.07 1653 1693.29 1643.35 C 1692.97 1648.17 1692.93 1653.01 1692.81 1657.84 L 1699.31 1666.8 C 1703.13 1661.03 1705.76 1655.21 1707.82 1648.62 L 1722.73 1662.01 C 1726.44 1653.92 1729.25 1646.07 1730.79 1637.28 A 224.083 224.083 0 0 1 1749.88 1654.35 C 1750.23 1642.54 1749.56 1631.72 1747.55 1620.06 C 1755.02 1623.97 1759.06 1628.39 1763.95 1635.02 C 1759.51 1618.33 1750.64 1608.36 1738.92 1596.27 C 1742.92 1598.38 1747.1 1600.27 1750.48 1603.3 L 1760.89 1606.8 C 1763.09 1609.71 1766.11 1615.26 1769.35 1616.66 C 1768.3 1611.32 1767.29 1605.96 1766.16 1600.64 C 1778.04 1611.23 1789 1620.96 1798.49 1633.84 C 1797.14 1605.85 1781.79 1581.92 1761.4 1563.32 C 1754.29 1556.83 1746.45 1551.36 1738.51 1545.93 C 1770.04 1558.01 1804.22 1574.58 1830.25 1596.47 C 1830.42 1564.42 1824.91 1533.73 1801.46 1510.13 C 1796.86 1505.5 1792 1501.19 1787.04 1496.95 C 1811.45 1508.04 1836.33 1526.18 1852.37 1547.9 C 1868.78 1465.77 1908.39 1384.61 1975.85 1332.98 C 1946 1368.98 1916.26 1439.45 1903.28 1484.65 C 1896.27 1509.02 1891.59 1534.18 1888.07 1559.27 C 1886.59 1569.87 1883.42 1582.67 1884.22 1593.33 C 1884.31 1594.51 1884.62 1595.46 1885 1596.57 L 1886.31 1596.38 C 1896.35 1566.14 1921.04 1530.43 1946.84 1511.38 C 1939.57 1526.39 1920.72 1566.3 1928.25 1582.32 C 1928.69 1583.25 1928.88 1583.34 1929.52 1583.95 C 1936.35 1581.06 1944.93 1544.36 1956.03 1546.28 C 1957.31 1549.84 1955.82 1553.55 1954.71 1557.02 C 1956.64 1562.65 1958.56 1568.22 1960.95 1573.67 C 1965.18 1556.28 1973.34 1544 1984.49 1530.19 C 1982.08 1542.2 1983.43 1550.28 1988.33 1561.41 C 1995.57 1544.07 1999.71 1531.21 1998.44 1512.24 C 2006.48 1522.33 2012.07 1533.13 2017.12 1544.96 A 88.3479 88.3479 0 0 0 2017.35 1485.41 C 2029.16 1497.91 2040.56 1514.43 2043.8 1531.64 C 2047.33 1550.42 2045.85 1572.03 2045.91 1591.16 L 2046.02 1691 L 2046 2046.03 L 2.11689 2045.98 L 2.81967 1958.55 C 10.7412 1962.25 16.4913 1966.97 22.7243 1973.02 C 21.7313 1968.91 20.9843 1964.47 19.4451 1960.53 L 9.95978 1952.66 C 13.9345 1954.11 17.9413 1955.5 21.8021 1957.23 C 25.22 1962.14 28.7777 1968.47 33.4618 1972.17 L 34.499 1971.19 C 34.248 1966.63 32.8465 1959.76 34.8998 1955.64 C 36.8676 1955 37.0764 1955.12 38.8615 1956.08 C 45.9112 1959.89 52.7614 1969.29 57.3006 1975.76 C 54.3388 1962.75 51.8328 1952.59 39.9343 1944.84 C 34.5449 1941.33 28.3475 1939.07 22.3921 1936.7 C 48.2634 1936.71 72.0082 1942.13 91.0668 1960.45 C 89.2971 1954.86 87.6152 1949.23 85.5388 1943.75 C 85.9228 1943.94 86.3095 1944.13 86.6908 1944.33 C 95.5997 1949 103.436 1956.03 111.353 1962.2 C 111.77 1959.57 111.428 1957.4 111.015 1954.81 L 112.083 1953.64 C 117.308 1953.82 123.586 1958.74 128.084 1961.51 C 114.382 1929.56 90.0731 1909.77 61.7622 1890.93 C 93.0628 1898.25 131.037 1912.98 151.073 1939.59 C 155.994 1906.05 173.263 1886.57 199.018 1865.42 C 184.276 1888.51 173.571 1912.38 179.575 1940.59 A 84.7313 84.7313 0 0 0 182.248 1950.42 C 185.022 1944.11 188.151 1938.12 192.728 1932.91 A 465.854 465.854 0 0 1 200.204 1949.51 C 202.438 1942.45 205.048 1937.14 209.797 1931.34 C 211.012 1938.42 212.473 1944.83 214.816 1951.63 C 221.988 1939.82 230.118 1926.31 239.758 1916.39 C 240.117 1925.57 241.096 1932.82 244.514 1941.42 C 246.586 1937.02 250.024 1927.33 254.518 1925.02 C 254.773 1924.89 255.06 1924.83 255.332 1924.74 C 257.539 1929.78 252.395 1936.63 254.557 1942.04 C 256.727 1941.95 257.005 1941.4 258.442 1939.85 C 265.588 1932.14 269.175 1921.53 276.191 1913.54 C 278.78 1922.54 281.292 1929.31 287.004 1936.84 C 288.115 1927.26 289.502 1917.65 292.294 1908.39 C 301.263 1916.34 308.567 1924.37 319.753 1929.28 C 315.086 1917.5 307.152 1907.48 298.842 1898.03 C 269.381 1864.52 233.669 1845.81 193.45 1828.41 C 185.79 1825.1 178.141 1821.63 170.311 1818.73 C 220.96 1820.4 270.472 1831.91 313.066 1860.54 C 286.574 1827.5 257.533 1795.14 223.159 1770.03 C 204.787 1756.61 185.36 1745.38 166.323 1733.05 C 214.666 1745.24 256.752 1771.96 296.652 1800.98 C 305.971 1807.76 314.887 1815.46 324.317 1821.99 C 325.089 1825.77 327.866 1829.56 331.331 1831.64 C 333.143 1832.73 334.054 1832.39 336.026 1832.11 C 339.216 1828.02 339.024 1826.88 338.91 1821.83 C 340.213 1826.31 340.849 1831.11 341.716 1835.7 C 365.806 1853.28 386.192 1873.08 405.651 1895.64 C 398.499 1866.47 382.496 1841.83 364.225 1818.47 C 393.15 1832.75 418.463 1856.84 437.676 1882.61 C 437.976 1876.55 438.755 1870.45 439.635 1864.45 C 445.205 1826.54 461.901 1791.38 490.468 1765.55 C 501.265 1755.78 513.326 1747.59 525.021 1738.96 C 490.599 1781.88 472.085 1815.49 468.123 1871.66 C 492.757 1827.49 518.768 1800.64 564.741 1779.2 C 536.016 1809.95 512.023 1839.36 507.484 1882.81 C 511.288 1878.12 515.321 1873.62 519.294 1869.07 L 522.122 1878.77 C 525.524 1871.14 529.743 1864.23 534.79 1857.59 L 542.405 1876.29 C 543.225 1866.28 547.124 1857.74 550.835 1848.57 C 556.28 1855.15 562.736 1860.55 567.705 1867.59 C 569.36 1862.57 570.955 1854.76 574.757 1851.03 C 576.055 1849.76 576.484 1850.16 578.143 1850.18 C 583.616 1854.11 588.045 1861.18 592.72 1866.27 C 589.356 1848.81 590.404 1836.33 597.76 1819.94 C 603.315 1833.4 607.184 1852.07 608.634 1866.55 C 612.074 1856.14 616.275 1846.53 622.716 1837.64 L 639.267 1856.65 C 647.486 1839.37 657.54 1825.91 671.235 1812.51 C 675.751 1822.45 680.607 1832.05 681.507 1843.1 C 687.423 1832.73 693.278 1824.96 703.702 1818.71 C 705.669 1827.8 706.062 1837.53 707.192 1846.79 C 710.801 1837.41 715.175 1828.94 720.539 1820.44 C 726.558 1829.06 733.75 1836.24 741.042 1843.76 C 742.066 1836.25 743.417 1828.8 744.73 1821.33 C 749.886 1825.64 755.24 1829.04 761.025 1832.45 C 758.715 1821.3 754.97 1814.62 747.331 1806.39 C 764.106 1812.04 779.584 1813.1 793.432 1825.34 C 788.351 1805.67 778.827 1796.53 763.779 1783.99 C 793.491 1783.9 815.637 1793.7 839.173 1811.25 C 821.98 1766.45 777.621 1735.48 739.578 1709.14 C 776.508 1718.75 818.118 1738.66 843.678 1767.7 C 847.596 1736.19 863.841 1714.35 886.541 1692.93 C 873.647 1728.1 862.806 1765.71 876.189 1802.35 C 880.611 1779.29 891.345 1759.65 907.68 1742.91 C 906.177 1759.98 903.461 1772.33 905.309 1789.82 C 908.905 1783.09 913.116 1776.74 917.251 1770.33 C 920.44 1780.52 924.072 1790.39 927.965 1800.31 C 933.362 1784.9 942.193 1774.53 952.805 1762.41 C 949.656 1774.64 948.714 1782.83 951.747 1795.26 C 955.189 1786.21 959.789 1777.88 962.427 1768.48 C 968.297 1774.66 971.964 1780.75 975.656 1788.32 L 976.016 1785.26 C 979.258 1758.21 987.87 1753.21 1007.91 1737.43 C 1003.86 1753.67 1001.46 1769.33 1001.56 1786.1 C 1007.81 1774.04 1014.76 1764.72 1025.29 1756.09 C 1024.46 1765.28 1023.94 1774.18 1024.09 1783.41 C 1028.07 1778.13 1033.11 1769.79 1039.53 1767.46 C 1039.51 1773.25 1039.77 1779.08 1039.89 1784.87 C 1055.45 1785.89 1070.51 1788.53 1086.22 1788.22 C 1110.96 1787.74 1136.1 1783.14 1160.71 1780.46 C 1182.66 1778.07 1205.62 1777.63 1227.17 1772.73 C 1236.31 1770.66 1245.91 1767.55 1253.49 1761.9 C 1245.96 1749.44 1239.5 1736.74 1234.75 1722.95 C 1237.63 1721.85 1240.12 1720.83 1242.65 1719.07 C 1244.07 1715.6 1245.2 1712.76 1247.76 1709.98 C 1249.71 1709.68 1251.4 1709.31 1253.25 1708.63 L 1254.35 1706.18 C 1253.52 1698.76 1248.25 1692.73 1244.01 1686.89 C 1247.96 1676.25 1251.88 1665.53 1257.03 1655.39 C 1266.41 1636.92 1278.64 1620.06 1289.34 1602.34 C 1295.96 1591.37 1301.39 1579.63 1307 1568.11 C 1308.77 1567.62 1307.98 1567.69 1309.97 1567.81 C 1310.46 1567.84 1310.95 1567.89 1311.44 1567.92 C 1316.08 1564.42 1322.87 1551.96 1323.8 1546.17 C 1324.43 1542.21 1322.94 1538.11 1324.09 1534.19 C 1326.1 1527.36 1331.98 1511.51 1335 1505.16 L 1335.6 1503.91 C 1336 1503.71 1336.4 1503.51 1336.79 1503.3 C 1350.79 1495.86 1364.96 1472.32 1369.53 1457.45 z"/>
    <path transform="translate(0,0)" fill="rgb(59,59,59)"
          d="M 1750.48 1603.3 L 1760.89 1606.8 C 1763.09 1609.71 1766.11 1615.26 1769.35 1616.66 L 1769.41 1617.73 L 1768.24 1618.07 C 1766.93 1619.47 1766.2 1620.25 1764.47 1621.16 C 1759.5 1617.98 1753.52 1608.41 1750.48 1603.3 z"/>
    <path transform="translate(0,0)" fill="rgb(254,254,254)"
          d="M 1369.53 1457.45 C 1360.54 1417.38 1363.24 1381.43 1372.81 1341.86 C 1376.02 1328.56 1379.43 1315.48 1384.51 1302.74 C 1411.19 1334.81 1446.14 1347.32 1480.87 1367.12 C 1488.16 1379.13 1494.8 1393.82 1497.34 1407.72 C 1501.2 1428.88 1497.37 1470.45 1496.07 1493.1 C 1504.14 1504.05 1515.28 1512.99 1524.91 1522.57 C 1526.4 1532.62 1525.58 1541.87 1531.27 1550.72 C 1529.34 1557.72 1524.23 1569.96 1527.86 1577.01 C 1530.11 1581.38 1533.65 1582.23 1538.01 1583.82 C 1547.82 1618.45 1558.66 1653.7 1558.92 1690.02 L 1557.91 1702.19 C 1552.79 1695.67 1547.71 1689.23 1542.01 1683.2 L 1536.41 1709.78 L 1528.57 1702.99 L 1525.14 1692.02 C 1517.45 1699.62 1513.94 1706.59 1508.55 1715.72 C 1502.67 1699.27 1504.22 1684.35 1511.65 1668.78 C 1515.19 1661.37 1519.64 1654.59 1524.39 1647.91 C 1504.41 1662.79 1489.82 1681.4 1483.41 1705.55 C 1456.69 1657.88 1408.79 1621.97 1359.4 1600.75 C 1403.4 1634.87 1424.85 1660.28 1447.26 1712.05 C 1402.7 1689.36 1383.67 1690.09 1335.2 1689.07 C 1356.12 1696.46 1390.71 1706.35 1405.98 1723.1 C 1408.3 1725.65 1409.82 1729.21 1411.33 1732.28 C 1394.79 1723.01 1379.65 1718.96 1360.81 1717.25 C 1365.48 1720.46 1373.12 1724.69 1374.66 1730.56 C 1374.89 1731.44 1374.78 1731.91 1374.7 1732.74 C 1369.52 1731 1365.3 1726.89 1360.01 1725.03 C 1347.77 1720.73 1334.88 1720.14 1322.23 1717.97 C 1325.86 1720.88 1330.35 1723.65 1332.13 1728.07 C 1332.54 1734.96 1327.66 1746.1 1326.1 1753.46 L 1314.02 1736.51 C 1304.25 1742.69 1295.46 1748.5 1287.93 1757.44 C 1286.84 1758.75 1285.73 1760.03 1284.64 1761.35 C 1285.62 1747.18 1288.98 1737.78 1297.65 1726.38 C 1282.21 1730.28 1267.4 1735.07 1258.57 1749.54 C 1256.84 1752.38 1255.83 1755.33 1254.74 1758.45 C 1254.34 1759.61 1253.9 1760.75 1253.49 1761.9 C 1245.96 1749.44 1239.5 1736.74 1234.75 1722.95 C 1237.63 1721.85 1240.12 1720.83 1242.65 1719.07 C 1244.07 1715.6 1245.2 1712.76 1247.76 1709.98 C 1249.71 1709.68 1251.4 1709.31 1253.25 1708.63 L 1254.35 1706.18 C 1253.52 1698.76 1248.25 1692.73 1244.01 1686.89 C 1247.96 1676.25 1251.88 1665.53 1257.03 1655.39 C 1266.41 1636.92 1278.64 1620.06 1289.34 1602.34 C 1295.96 1591.37 1301.39 1579.63 1307 1568.11 C 1308.77 1567.62 1307.98 1567.69 1309.97 1567.81 C 1310.46 1567.84 1310.95 1567.89 1311.44 1567.92 C 1316.08 1564.42 1322.87 1551.96 1323.8 1546.17 C 1324.43 1542.21 1322.94 1538.11 1324.09 1534.19 C 1326.1 1527.36 1331.98 1511.51 1335 1505.16 L 1335.6 1503.91 C 1336 1503.71 1336.4 1503.51 1336.79 1503.3 C 1350.79 1495.86 1364.96 1472.32 1369.53 1457.45 z"/>
</svg>