<svg xmlns="http://www.w3.org/2000/svg" viewBox="0 0 461 461" preserveAspectRatio="xMidYMid meet">
    <g transform="translate(0,461) scale(0.1,-0.1)" fill="#000" stroke="none">

        <path d="M1555 4240 c-3 -5 10 -130 29 -277 19 -147 36 -281 38 -298 l3 -30
-160 -18 c-88 -10 -164 -22 -168 -26 -11 -11 70 -490 85 -509 6 -7 20 -11 30
-9 26 7 22 -7 -17 -62 -19 -27 -50 -82 -69 -122 -29 -65 -39 -99 -62 -208 l-5
-23 -127 4 c-147 5 -185 18 -271 93 -30 26 -66 52 -80 57 -39 16 -120 16 -139
1 -16 -12 -16 -14 2 -28 11 -8 28 -13 37 -10 34 11 97 -16 165 -70 91 -73 156
-93 303 -96 l111 -1 0 -30 c0 -152 112 -388 234 -495 24 -21 83 -96 131 -167
47 -71 126 -181 174 -245 48 -64 91 -123 97 -131 5 -8 11 -69 14 -135 5 -112
6 -120 25 -120 19 0 20 8 23 117 3 140 5 135 -117 298 -48 63 -112 152 -143
196 l-57 82 49 -24 c79 -38 188 -65 290 -71 130 -8 233 13 402 82 15 6 16 3 2
-47 -36 -137 -56 -273 -49 -338 4 -36 10 -112 13 -170 6 -96 9 -105 27 -105
22 0 21 -23 13 315 -2 93 6 140 58 336 14 54 22 66 65 98 132 98 234 280 264
468 5 33 10 38 41 44 19 3 86 4 147 1 120 -6 192 -26 273 -79 65 -42 112 -58
171 -58 40 0 55 4 60 16 8 22 -14 34 -67 34 -25 0 -56 6 -70 13 -46 25 -105
59 -115 67 -11 8 -83 34 -100 36 -5 0 -19 5 -30 10 -11 5 -83 9 -160 9 l-141
0 -17 104 c-17 106 -46 179 -107 271 -16 25 -36 53 -42 64 -7 10 -23 29 -35
42 -31 31 -29 40 10 41 17 0 55 1 83 2 90 2 87 -10 74 281 -6 140 -15 259 -19
263 -4 4 -122 -7 -262 -26 -140 -19 -255 -33 -256 -32 -2 1 -8 136 -13 301 -6
164 -13 305 -15 312 -5 15 -620 18 -630 2z m985 -1182 c82 -83 78 -78 123
-170 210 -433 -106 -929 -608 -955 -283 -14 -546 134 -668 377 -78 155 -95
296 -56 446 24 93 71 187 134 267 45 56 50 59 115 59 11 0 22 0 24 -1 3 0 -9
-14 -25 -30 -38 -38 -38 -78 -1 -113 36 -34 59 -44 106 -47 22 -1 43 -4 48 -7
5 -3 15 -1 22 5 8 7 18 11 22 10 40 -7 94 48 94 94 0 36 -12 55 -48 79 -22 15
-21 16 35 21 32 4 130 9 218 13 88 4 168 9 177 13 10 3 64 6 120 6 l103 -1 65
-66z m-720 -66 c0 -12 -8 -26 -17 -29 -10 -4 -20 -10 -23 -13 -3 -4 -25 -10
-50 -14 -33 -5 -54 -2 -79 11 -76 40 -62 78 35 98 52 10 61 9 96 -9 27 -15 38
-28 38 -44z"/>
        <path d="M2241 3036 c-52 -17 -91 -52 -91 -80 0 -12 8 -35 19 -52 15 -24 29
-33 76 -43 79 -18 137 -17 166 2 14 10 28 15 31 11 10 -9 48 53 48 79 0 26
-30 67 -49 67 -6 0 -11 4 -11 8 0 5 -6 9 -12 9 -7 1 -40 4 -73 7 -39 4 -75 1
-104 -8z m143 -40 c7 3 23 -7 36 -21 24 -25 24 -26 4 -45 -11 -11 -31 -23 -44
-26 -42 -11 -134 -7 -138 5 -2 6 -10 11 -17 11 -7 0 -16 7 -19 16 -6 17 12 60
21 50 4 -3 12 -1 20 5 7 6 13 9 13 6 0 -4 10 -3 22 2 12 4 37 4 56 0 19 -4 40
-5 46 -3z"/>
        <path d="M2306 2961 c-6 -10 10 -25 36 -34 17 -6 28 9 21 31 -5 14 -49 17 -57
3z"/>
        <path d="M1983 2940 c-9 -16 -21 -30 -25 -30 -4 0 -8 -6 -8 -12 0 -7 -14 -29
-30 -48 -17 -19 -37 -51 -46 -70 -10 -19 -30 -54 -46 -77 -112 -165 -104 -256
28 -283 73 -15 109 -10 109 15 0 17 -9 21 -53 26 -86 11 -112 26 -112 64 0 17
11 52 25 76 14 24 28 52 31 62 4 9 10 17 15 17 5 0 9 5 9 10 0 6 36 63 80 127
44 65 80 125 80 135 0 29 -37 21 -57 -12z"/>
        <path d="M2018 2364 c-3 -3 -100 -6 -214 -7 -201 -2 -209 -3 -209 -22 0 -18 9
-21 75 -27 41 -4 149 -3 240 2 239 14 366 12 435 -5 37 -10 62 -12 68 -6 39
39 -80 71 -261 71 -71 0 -131 -3 -134 -6z"/>
        <path d="M1687 3016 c-24 -18 -12 -45 19 -41 33 3 41 12 28 32 -14 23 -26 25
-47 9z"/>
        <path d="M1063 1164 c-3 -8 -2 -19 3 -23 14 -13 126 -48 278 -86 76 -19 141
-37 145 -40 3 -3 -23 -61 -57 -128 -34 -67 -62 -130 -62 -139 0 -10 -5 -18
-11 -18 -16 0 -161 37 -276 71 -102 30 -123 31 -123 3 0 -18 20 -26 175 -70
263 -75 471 -104 749 -104 307 0 761 -29 1028 -66 39 -6 49 -4 54 10 4 10 3
21 -2 26 -5 5 -101 20 -213 32 l-202 22 6 61 c6 47 18 78 58 145 28 47 52 87
54 89 1 2 89 -6 194 -18 192 -22 218 -20 206 12 -3 9 -35 18 -94 25 -162 21
-406 42 -553 48 -80 3 -152 8 -160 11 -8 3 -114 5 -234 4 -320 -2 -503 22
-801 109 -77 22 -144 40 -148 40 -4 0 -10 -7 -14 -16z m640 -173 c48 -5 90
-10 92 -13 2 -2 -20 -46 -50 -98 -30 -52 -59 -118 -65 -146 -12 -57 4 -54
-150 -34 -126 16 -121 14 -105 60 8 22 32 70 54 108 21 37 45 84 52 105 13 36
15 38 49 32 19 -3 75 -9 123 -14z m297 -15 c0 -2 -11 -33 -24 -68 -13 -35 -30
-101 -36 -146 l-12 -82 -105 0 -105 0 7 33 c6 31 25 72 96 204 l34 63 73 0
c39 0 72 -2 72 -4z m152 -58 c-13 -35 -29 -98 -34 -142 -4 -43 -11 -82 -14
-87 -3 -5 -32 -9 -66 -9 l-60 0 7 53 c8 64 29 141 55 201 l19 46 59 0 60 0
-26 -62z m198 48 c0 -5 -41 -122 -76 -218 -28 -75 -30 -78 -61 -78 -39 0 -65
9 -58 21 3 5 10 44 15 87 5 44 20 103 34 135 l25 57 60 0 c34 0 61 -2 61 -4z
m258 -11 c1 -1 -20 -40 -48 -86 -27 -46 -50 -95 -50 -109 0 -14 -3 -43 -7 -64
l-6 -39 -95 6 c-52 4 -96 8 -98 10 -2 2 19 65 46 140 28 75 50 141 50 147 0 8
31 9 103 4 56 -4 103 -8 105 -9z"/>
        <path d="M1057 1093 c-27 -27 30 -59 204 -114 100 -32 133 -32 127 -2 -2 12
-30 25 -93 44 -50 14 -118 38 -152 53 -66 28 -76 30 -86 19z"/>
        <path d="M1017 954 c-29 -29 20 -56 101 -56 48 0 58 -4 93 -35 63 -57 98 -25
37 34 -45 42 -71 54 -115 52 -21 -2 -54 1 -73 5 -19 4 -39 4 -43 0z"/>
        <path d="M2804 856 c-8 -22 14 -55 41 -62 13 -3 55 0 94 6 54 10 79 10 117 1
31 -8 50 -9 57 -2 19 19 -3 40 -57 52 -45 10 -70 10 -127 -1 -64 -11 -73 -11
-81 4 -11 20 -37 21 -44 2z"/>
        <path d="M2815 721 c-31 -5 -40 -10 -40 -26 0 -18 7 -20 85 -21 63 0 100 -6
142 -23 70 -27 123 -25 123 4 0 16 -9 21 -40 26 -22 4 -59 13 -81 22 -51 19
-136 27 -189 18z"/>
    </g>
</svg>
